<mxfile host="app.diagrams.net" modified="2023-08-10T12:26:20.277Z" agent="Mozilla/5.0 (Windows NT 10.0; Win64; x64) AppleWebKit/537.36 (KHTML, like Gecko) Chrome/115.0.0.0 Safari/537.36" etag="8Chbml-J4kQr1mIj6Kss" version="21.6.7" type="github">
  <diagram name="Seite-1" id="8O7nqMV1pDiucMTswJLM">
    <mxGraphModel dx="5514" dy="3504" grid="1" gridSize="10" guides="1" tooltips="1" connect="1" arrows="1" fold="1" page="1" pageScale="1" pageWidth="827" pageHeight="1169" math="0" shadow="0">
      <root>
        <mxCell id="0" />
        <mxCell id="1" parent="0" />
        <mxCell id="FmK_zJNC0J271hB84PhB-2" value="Informationen zum Zwischenfall" style="html=1;whiteSpace=wrap;container=1;verticalAlign=top;align=left;fontStyle=1;fontSize=22;" parent="1" vertex="1">
          <mxGeometry x="-2452.2" y="-580" width="782.2" height="630" as="geometry" />
        </mxCell>
        <mxCell id="FmK_zJNC0J271hB84PhB-3" value="&lt;font style=&quot;font-size: 16px;&quot;&gt;Grad des Schadens&lt;/font&gt;" style="html=1;whiteSpace=wrap;container=1;align=left;movable=1;resizable=1;rotatable=1;deletable=1;editable=1;locked=0;connectable=1;fillColor=#f8cecc;strokeColor=#b85450;" parent="FmK_zJNC0J271hB84PhB-2" vertex="1">
          <mxGeometry x="9.538568774639169" y="50" width="760.5089923076923" height="49.23" as="geometry" />
        </mxCell>
        <mxCell id="FmK_zJNC0J271hB84PhB-16" value="" style="strokeWidth=1;shadow=0;dashed=0;align=center;html=1;shape=mxgraph.mockup.forms.comboBox;strokeColor=#999999;fillColor=#ddeeff;align=left;fillColor2=#aaddff;mainText=;fontColor=#666666;fontSize=17;spacingLeft=3;movable=1;resizable=1;rotatable=1;deletable=1;editable=1;locked=0;connectable=1;" parent="FmK_zJNC0J271hB84PhB-3" vertex="1">
          <mxGeometry x="201.0454564102564" y="4.922999999999999" width="551.0699282051282" height="34.461" as="geometry" />
        </mxCell>
        <mxCell id="FmK_zJNC0J271hB84PhB-15" value="&lt;font style=&quot;font-size: 16px;&quot;&gt;Zeitpunkt: Beginn des Zwischenfalls&lt;/font&gt;" style="html=1;whiteSpace=wrap;container=1;align=left;movable=1;resizable=1;rotatable=1;deletable=1;editable=1;locked=0;connectable=1;fillColor=#f8cecc;strokeColor=#b85450;" parent="FmK_zJNC0J271hB84PhB-2" vertex="1">
          <mxGeometry x="9.536823076923076" y="230" width="760.5089923076923" height="45.38" as="geometry" />
        </mxCell>
        <mxCell id="FmK_zJNC0J271hB84PhB-83" value="&lt;font style=&quot;font-size: 14px;&quot;&gt;Feldtyp: Uhrzeit&lt;/font&gt;" style="rounded=0;whiteSpace=wrap;html=1;align=left;" parent="FmK_zJNC0J271hB84PhB-15" vertex="1">
          <mxGeometry x="278.292249047014" y="10.16" width="475.1243811944092" height="25.07" as="geometry" />
        </mxCell>
        <mxCell id="FmK_zJNC0J271hB84PhB-5" value="&lt;font style=&quot;font-size: 16px;&quot;&gt;Datum: Beginn des Zwischenfalls&lt;/font&gt;" style="html=1;whiteSpace=wrap;container=1;align=left;movable=1;resizable=1;rotatable=1;deletable=1;editable=1;locked=0;connectable=1;fillColor=#f8cecc;strokeColor=#b85450;" parent="FmK_zJNC0J271hB84PhB-2" vertex="1">
          <mxGeometry x="9.536823076923241" y="170" width="760.5089923076923" height="50" as="geometry" />
        </mxCell>
        <mxCell id="FmK_zJNC0J271hB84PhB-92" value="&lt;font style=&quot;font-size: 14px;&quot;&gt;Feldtyp: Datum&lt;/font&gt;" style="rounded=0;whiteSpace=wrap;html=1;align=left;" parent="FmK_zJNC0J271hB84PhB-5" vertex="1">
          <mxGeometry x="278.292249047014" y="14" width="473.82237102922494" height="27.62" as="geometry" />
        </mxCell>
        <mxCell id="FmK_zJNC0J271hB84PhB-105" value="&lt;font style=&quot;font-size: 16px;&quot;&gt;Art des Verschreibungsfehlers&lt;/font&gt;" style="html=1;whiteSpace=wrap;container=1;align=left;movable=1;resizable=1;rotatable=1;deletable=1;editable=1;locked=0;connectable=1;fillColor=#f8cecc;strokeColor=#b85450;" parent="FmK_zJNC0J271hB84PhB-2" vertex="1">
          <mxGeometry x="9.541448538754766" y="410" width="762.6300914866582" height="50" as="geometry" />
        </mxCell>
        <mxCell id="yxWZDSmVDI_DWrx5P2sv-16" value="&lt;table&gt;&lt;tbody&gt;&lt;tr&gt;&lt;td&gt;&lt;br&gt;&lt;/td&gt;&lt;/tr&gt;&lt;tr&gt;&lt;td&gt;&lt;br&gt;&lt;/td&gt;&lt;/tr&gt;&lt;tr&gt;&lt;td&gt;&lt;br&gt;&lt;/td&gt;&lt;/tr&gt;&lt;tr&gt;&lt;td&gt;&lt;br&gt;&lt;/td&gt;&lt;/tr&gt;&lt;tr&gt;&lt;td&gt;&lt;br&gt;&lt;/td&gt;&lt;/tr&gt;&lt;/tbody&gt;&lt;/table&gt;" style="strokeWidth=1;shadow=0;dashed=0;align=center;html=1;shape=mxgraph.mockup.forms.comboBox;strokeColor=#999999;fillColor=#ddeeff;align=left;fillColor2=#aaddff;mainText=;fontColor=#666666;fontSize=17;spacingLeft=3;container=0;movable=1;resizable=1;rotatable=1;deletable=1;editable=1;locked=0;connectable=1;" parent="FmK_zJNC0J271hB84PhB-105" vertex="1">
          <mxGeometry x="240" y="10" width="514.48" height="30" as="geometry" />
        </mxCell>
        <mxCell id="FmK_zJNC0J271hB84PhB-130" value="&lt;font style=&quot;font-size: 16px;&quot;&gt;Datum: Erkennung des Zwischenfalls&lt;/font&gt;" style="html=1;whiteSpace=wrap;container=1;align=left;movable=1;resizable=1;rotatable=1;deletable=1;editable=1;locked=0;connectable=1;fillColor=#f8cecc;strokeColor=#b85450;" parent="FmK_zJNC0J271hB84PhB-2" vertex="1">
          <mxGeometry x="9.536823076922891" y="290" width="760.5089923076923" height="50" as="geometry" />
        </mxCell>
        <mxCell id="FmK_zJNC0J271hB84PhB-131" value="&lt;font style=&quot;font-size: 14px;&quot;&gt;Feldtyp: Datum&lt;/font&gt;" style="rounded=0;whiteSpace=wrap;html=1;align=left;" parent="FmK_zJNC0J271hB84PhB-130" vertex="1">
          <mxGeometry x="278.292249047014" y="14" width="473.82237102922494" height="27.62" as="geometry" />
        </mxCell>
        <mxCell id="FmK_zJNC0J271hB84PhB-132" value="&lt;font style=&quot;font-size: 16px;&quot;&gt;Zeitpunkt: Erkennung des Zwischenfalls&lt;/font&gt;" style="html=1;whiteSpace=wrap;container=1;align=left;movable=1;resizable=1;rotatable=1;deletable=1;editable=1;locked=0;connectable=1;fillColor=#f8cecc;strokeColor=#b85450;" parent="FmK_zJNC0J271hB84PhB-2" vertex="1">
          <mxGeometry x="10.60029702863852" y="350" width="760.5089923076923" height="45.38" as="geometry" />
        </mxCell>
        <mxCell id="FmK_zJNC0J271hB84PhB-133" value="&lt;font style=&quot;font-size: 14px;&quot;&gt;Feldtyp: Uhrzeit&lt;/font&gt;" style="rounded=0;whiteSpace=wrap;html=1;align=left;" parent="FmK_zJNC0J271hB84PhB-132" vertex="1">
          <mxGeometry x="310" y="10.16" width="443.42" height="25.07" as="geometry" />
        </mxCell>
        <mxCell id="FmK_zJNC0J271hB84PhB-134" value="&lt;font style=&quot;font-size: 16px;&quot;&gt;Beschreibung&lt;/font&gt;" style="html=1;whiteSpace=wrap;container=1;align=left;movable=1;resizable=1;rotatable=1;deletable=1;editable=1;locked=0;connectable=1;" parent="FmK_zJNC0J271hB84PhB-2" vertex="1">
          <mxGeometry x="9.939008894536215" y="110" width="762.2325311308767" height="47.6" as="geometry" />
        </mxCell>
        <mxCell id="FmK_zJNC0J271hB84PhB-135" value="&lt;font style=&quot;font-size: 14px;&quot;&gt;Freitextfeld&lt;/font&gt;" style="rounded=0;whiteSpace=wrap;html=1;align=left;" parent="FmK_zJNC0J271hB84PhB-134" vertex="1">
          <mxGeometry x="229.86481515570392" y="13.328000000000001" width="523.9550858796181" height="26.294240000000002" as="geometry" />
        </mxCell>
        <mxCell id="DG4VdXtJs0O7hIi2pJMf-1" value="&lt;font style=&quot;font-size: 16px;&quot;&gt;Beschreibung&lt;/font&gt;" style="html=1;whiteSpace=wrap;container=1;align=left;movable=1;resizable=1;rotatable=1;deletable=1;editable=1;locked=0;connectable=1;" parent="FmK_zJNC0J271hB84PhB-2" vertex="1">
          <mxGeometry x="10.599008894535928" y="470" width="762.2325311308767" height="47.6" as="geometry" />
        </mxCell>
        <mxCell id="DG4VdXtJs0O7hIi2pJMf-2" value="&lt;font style=&quot;font-size: 14px;&quot;&gt;Freitextfeld&lt;/font&gt;" style="rounded=0;whiteSpace=wrap;html=1;align=left;" parent="DG4VdXtJs0O7hIi2pJMf-1" vertex="1">
          <mxGeometry x="229.86481515570392" y="13.328000000000001" width="523.9550858796181" height="26.294240000000002" as="geometry" />
        </mxCell>
        <mxCell id="bGcx2p2PE-QoZrHpDItu-20" value="" style="group" parent="1" vertex="1" connectable="0">
          <mxGeometry x="-2450.59" y="-1360" width="782.59" height="760" as="geometry" />
        </mxCell>
        <mxCell id="bGcx2p2PE-QoZrHpDItu-21" value="Medikation des Zwischenfalls" style="html=1;whiteSpace=wrap;container=1;verticalAlign=top;align=left;fontStyle=1;fontSize=22;" parent="bGcx2p2PE-QoZrHpDItu-20" vertex="1">
          <mxGeometry x="1.3" y="-13.818181818181818" width="780.0000000000001" height="773.8181818181819" as="geometry" />
        </mxCell>
        <mxCell id="bGcx2p2PE-QoZrHpDItu-22" value="&lt;font style=&quot;font-size: 16px;&quot;&gt;Name des Medikaments&lt;/font&gt;" style="html=1;whiteSpace=wrap;container=1;align=left;movable=1;resizable=1;rotatable=1;deletable=1;editable=1;locked=0;connectable=1;fillColor=#ffcccc;strokeColor=#36393d;" parent="bGcx2p2PE-QoZrHpDItu-21" vertex="1">
          <mxGeometry x="10.81" y="50" width="758.37" height="50" as="geometry" />
        </mxCell>
        <mxCell id="MbmpIsr86u1NgLFeS8km-2" value="&lt;font style=&quot;font-size: 16px;&quot;&gt;War die Verschreibung auf Reserve?&amp;nbsp;&lt;/font&gt;" style="html=1;whiteSpace=wrap;container=1;align=left;movable=0;resizable=0;rotatable=0;deletable=0;editable=0;locked=1;connectable=0;" parent="bGcx2p2PE-QoZrHpDItu-21" vertex="1">
          <mxGeometry x="10.809999999999945" y="170" width="758.37" height="50" as="geometry" />
        </mxCell>
        <mxCell id="MbmpIsr86u1NgLFeS8km-3" value="Ja" style="strokeWidth=1;shadow=0;dashed=0;align=center;html=1;shape=mxgraph.mockup.forms.rrect;rSize=0;fillColor=#eeeeee;strokeColor=#999999;gradientColor=#cccccc;align=left;spacingLeft=4;fontSize=17;fontColor=#666666;labelPosition=right;" parent="MbmpIsr86u1NgLFeS8km-2" vertex="1">
          <mxGeometry x="347.8899999999999" y="16" width="15" height="15" as="geometry" />
        </mxCell>
        <mxCell id="MbmpIsr86u1NgLFeS8km-5" value="Nein" style="strokeWidth=1;shadow=0;dashed=0;align=center;html=1;shape=mxgraph.mockup.forms.rrect;rSize=0;fillColor=#eeeeee;strokeColor=#999999;gradientColor=#cccccc;align=left;spacingLeft=4;fontSize=17;fontColor=#666666;labelPosition=right;" parent="MbmpIsr86u1NgLFeS8km-2" vertex="1">
          <mxGeometry x="417.8899999999999" y="16" width="15" height="15" as="geometry" />
        </mxCell>
        <mxCell id="gpSDU0lfajovMPE759uH-1" value="&lt;span style=&quot;font-size: 16px;&quot;&gt;Kombimedikament mit&lt;/span&gt;" style="html=1;whiteSpace=wrap;container=1;align=left;movable=1;resizable=1;rotatable=1;deletable=1;editable=1;locked=0;connectable=1;" parent="bGcx2p2PE-QoZrHpDItu-21" vertex="1">
          <mxGeometry x="10.809999999999945" y="110" width="758.37" height="50" as="geometry" />
        </mxCell>
        <mxCell id="gpSDU0lfajovMPE759uH-13" value="&lt;font style=&quot;font-size: 16px;&quot;&gt;Wurden Gaben verordnet oder geplant?&amp;nbsp;&lt;/font&gt;" style="html=1;whiteSpace=wrap;container=1;align=left;movable=1;resizable=1;rotatable=1;deletable=1;editable=1;locked=0;connectable=1;fillColor=#FFCCCC;strokeColor=#36393d;" parent="bGcx2p2PE-QoZrHpDItu-21" vertex="1">
          <mxGeometry x="10.809999999999945" y="230" width="758.37" height="50" as="geometry" />
        </mxCell>
        <mxCell id="gpSDU0lfajovMPE759uH-14" value="Ja" style="strokeWidth=1;shadow=0;dashed=0;align=center;html=1;shape=mxgraph.mockup.forms.rrect;rSize=0;fillColor=#eeeeee;strokeColor=#999999;gradientColor=#cccccc;align=left;spacingLeft=4;fontSize=17;fontColor=#666666;labelPosition=right;" parent="gpSDU0lfajovMPE759uH-13" vertex="1">
          <mxGeometry x="347.8899999999999" y="16" width="15" height="15" as="geometry" />
        </mxCell>
        <mxCell id="gpSDU0lfajovMPE759uH-15" value="Nein" style="strokeWidth=1;shadow=0;dashed=0;align=center;html=1;shape=mxgraph.mockup.forms.rrect;rSize=0;fillColor=#eeeeee;strokeColor=#999999;gradientColor=#cccccc;align=left;spacingLeft=4;fontSize=17;fontColor=#666666;labelPosition=right;" parent="gpSDU0lfajovMPE759uH-13" vertex="1">
          <mxGeometry x="417.8899999999999" y="16" width="15" height="15" as="geometry" />
        </mxCell>
        <mxCell id="gpSDU0lfajovMPE759uH-50" value="&lt;font style=&quot;font-size: 14px;&quot;&gt;Verordnet oder geplant?&lt;/font&gt;" style="rounded=1;whiteSpace=wrap;html=1;fillColor=#D5E8D4;" parent="gpSDU0lfajovMPE759uH-13" vertex="1">
          <mxGeometry x="518.4800000000002" y="4.99818181818182" width="218.7" height="40" as="geometry" />
        </mxCell>
        <mxCell id="gpSDU0lfajovMPE759uH-17" value="&lt;font style=&quot;font-size: 16px;&quot;&gt;Wie ist das Intervall&lt;/font&gt;" style="html=1;whiteSpace=wrap;container=1;align=left;movable=1;resizable=1;rotatable=1;deletable=1;editable=1;locked=0;connectable=1;" parent="bGcx2p2PE-QoZrHpDItu-21" vertex="1">
          <mxGeometry x="90" y="303.82" width="680" height="49.23" as="geometry" />
        </mxCell>
        <mxCell id="gpSDU0lfajovMPE759uH-18" value="" style="strokeWidth=1;shadow=0;dashed=0;align=center;html=1;shape=mxgraph.mockup.forms.comboBox;strokeColor=#999999;fillColor=#ddeeff;align=left;fillColor2=#aaddff;mainText=;fontColor=#666666;fontSize=17;spacingLeft=3;movable=1;resizable=1;rotatable=1;deletable=1;editable=1;locked=0;connectable=1;" parent="gpSDU0lfajovMPE759uH-17" vertex="1">
          <mxGeometry x="179.76238511544497" y="4.922999999999999" width="492.73257117238285" height="34.461" as="geometry" />
        </mxCell>
        <mxCell id="gpSDU0lfajovMPE759uH-53" value="&lt;font style=&quot;font-size: 16px;&quot;&gt;Wie lange wurde die Dosis schon so verordnet/geplant?&lt;/font&gt;" style="html=1;whiteSpace=wrap;container=1;align=left;movable=1;resizable=1;rotatable=1;deletable=1;editable=1;locked=0;connectable=1;" parent="bGcx2p2PE-QoZrHpDItu-21" vertex="1">
          <mxGeometry x="90" y="433.82" width="679.18" height="50" as="geometry" />
        </mxCell>
        <mxCell id="gpSDU0lfajovMPE759uH-54" value="&lt;font style=&quot;font-size: 14px;&quot;&gt;Ganzzahl [d]&lt;/font&gt;" style="rounded=0;whiteSpace=wrap;html=1;align=left;" parent="gpSDU0lfajovMPE759uH-53" vertex="1">
          <mxGeometry x="420" y="14" width="251.68" height="27.62" as="geometry" />
        </mxCell>
        <mxCell id="gpSDU0lfajovMPE759uH-2" value="&lt;table&gt;&lt;tbody&gt;&lt;tr&gt;&lt;td&gt;&lt;br&gt;&lt;/td&gt;&lt;/tr&gt;&lt;tr&gt;&lt;td&gt;&lt;br&gt;&lt;/td&gt;&lt;/tr&gt;&lt;tr&gt;&lt;td&gt;&lt;br&gt;&lt;/td&gt;&lt;/tr&gt;&lt;tr&gt;&lt;td&gt;&lt;br&gt;&lt;/td&gt;&lt;/tr&gt;&lt;tr&gt;&lt;td&gt;&lt;br&gt;&lt;/td&gt;&lt;/tr&gt;&lt;/tbody&gt;&lt;/table&gt;" style="strokeWidth=1;shadow=0;dashed=0;align=center;html=1;shape=mxgraph.mockup.forms.comboBox;strokeColor=#999999;fillColor=#ddeeff;align=left;fillColor2=#aaddff;mainText=;fontColor=#666666;fontSize=17;spacingLeft=3;container=0;movable=1;resizable=1;rotatable=1;deletable=1;editable=1;locked=0;connectable=1;" parent="bGcx2p2PE-QoZrHpDItu-21" vertex="1">
          <mxGeometry x="211.28999999999996" y="119.99818181818176" width="537.41" height="30" as="geometry" />
        </mxCell>
        <mxCell id="gpSDU0lfajovMPE759uH-56" value="" style="shape=curlyBracket;whiteSpace=wrap;html=1;rounded=1;labelPosition=left;verticalLabelPosition=middle;align=right;verticalAlign=middle;" parent="bGcx2p2PE-QoZrHpDItu-21" vertex="1">
          <mxGeometry x="49.29" y="310" width="20" height="173.82" as="geometry" />
        </mxCell>
        <mxCell id="gpSDU0lfajovMPE759uH-62" value="&lt;font style=&quot;font-size: 15px;&quot;&gt;bei Ja&lt;/font&gt;" style="rounded=1;whiteSpace=wrap;html=1;" parent="bGcx2p2PE-QoZrHpDItu-21" vertex="1">
          <mxGeometry x="10.809999999999945" y="366.9081818181818" width="40" height="60" as="geometry" />
        </mxCell>
        <mxCell id="gpSDU0lfajovMPE759uH-65" value="&lt;font style=&quot;font-size: 16px;&quot;&gt;Wurden Gaben gegeben?&amp;nbsp;&lt;/font&gt;" style="html=1;whiteSpace=wrap;container=1;align=left;movable=1;resizable=1;rotatable=1;deletable=1;editable=1;locked=0;connectable=1;fillColor=#ffcccc;strokeColor=#36393d;" parent="bGcx2p2PE-QoZrHpDItu-21" vertex="1">
          <mxGeometry x="10.809999999999945" y="503.81999999999994" width="758.37" height="50" as="geometry" />
        </mxCell>
        <mxCell id="gpSDU0lfajovMPE759uH-66" value="Ja" style="strokeWidth=1;shadow=0;dashed=0;align=center;html=1;shape=mxgraph.mockup.forms.rrect;rSize=0;fillColor=#eeeeee;strokeColor=#999999;gradientColor=#cccccc;align=left;spacingLeft=4;fontSize=17;fontColor=#666666;labelPosition=right;" parent="gpSDU0lfajovMPE759uH-65" vertex="1">
          <mxGeometry x="347.8899999999999" y="16" width="15" height="15" as="geometry" />
        </mxCell>
        <mxCell id="gpSDU0lfajovMPE759uH-67" value="Nein" style="strokeWidth=1;shadow=0;dashed=0;align=center;html=1;shape=mxgraph.mockup.forms.rrect;rSize=0;fillColor=#eeeeee;strokeColor=#999999;gradientColor=#cccccc;align=left;spacingLeft=4;fontSize=17;fontColor=#666666;labelPosition=right;" parent="gpSDU0lfajovMPE759uH-65" vertex="1">
          <mxGeometry x="417.8899999999999" y="16" width="15" height="15" as="geometry" />
        </mxCell>
        <mxCell id="gpSDU0lfajovMPE759uH-69" value="&lt;font style=&quot;font-size: 16px;&quot;&gt;Wie ist das Intervall&lt;/font&gt;" style="html=1;whiteSpace=wrap;container=1;align=left;movable=1;resizable=1;rotatable=1;deletable=1;editable=1;locked=0;connectable=1;" parent="bGcx2p2PE-QoZrHpDItu-21" vertex="1">
          <mxGeometry x="90" y="563.8199999999999" width="680" height="49.23" as="geometry" />
        </mxCell>
        <mxCell id="gpSDU0lfajovMPE759uH-70" value="" style="strokeWidth=1;shadow=0;dashed=0;align=center;html=1;shape=mxgraph.mockup.forms.comboBox;strokeColor=#999999;fillColor=#ddeeff;align=left;fillColor2=#aaddff;mainText=;fontColor=#666666;fontSize=17;spacingLeft=3;movable=1;resizable=1;rotatable=1;deletable=1;editable=1;locked=0;connectable=1;" parent="gpSDU0lfajovMPE759uH-69" vertex="1">
          <mxGeometry x="179.76238511544497" y="4.922999999999999" width="492.73257117238285" height="34.461" as="geometry" />
        </mxCell>
        <mxCell id="gpSDU0lfajovMPE759uH-71" value="&lt;font style=&quot;font-size: 16px;&quot;&gt;Wie ist die Tageszeit des Intervalls&lt;/font&gt;" style="html=1;whiteSpace=wrap;container=1;align=left;movable=1;resizable=1;rotatable=1;deletable=1;editable=1;locked=0;connectable=1;" parent="bGcx2p2PE-QoZrHpDItu-21" vertex="1">
          <mxGeometry x="88.28999999999996" y="623.8181818181818" width="680.89" height="49.23" as="geometry" />
        </mxCell>
        <mxCell id="gpSDU0lfajovMPE759uH-72" value="" style="strokeWidth=1;shadow=0;dashed=0;align=center;html=1;shape=mxgraph.mockup.forms.comboBox;strokeColor=#999999;fillColor=#ddeeff;align=left;fillColor2=#aaddff;mainText=;fontColor=#666666;fontSize=17;spacingLeft=3;movable=1;resizable=1;rotatable=1;deletable=1;editable=1;locked=0;connectable=1;" parent="gpSDU0lfajovMPE759uH-71" vertex="1">
          <mxGeometry x="270" y="4.92" width="404.27" height="34.46" as="geometry" />
        </mxCell>
        <mxCell id="gpSDU0lfajovMPE759uH-73" value="&lt;font style=&quot;font-size: 16px;&quot;&gt;Wie lange wurde die Dosis schon so gegeben?&lt;/font&gt;" style="html=1;whiteSpace=wrap;container=1;align=left;movable=1;resizable=1;rotatable=1;deletable=1;editable=1;locked=0;connectable=1;" parent="bGcx2p2PE-QoZrHpDItu-21" vertex="1">
          <mxGeometry x="89.13999999999987" y="683.8199999999999" width="679.18" height="50" as="geometry" />
        </mxCell>
        <mxCell id="gpSDU0lfajovMPE759uH-74" value="&lt;font style=&quot;font-size: 14px;&quot;&gt;Ganzzahl [d]&lt;/font&gt;" style="rounded=0;whiteSpace=wrap;html=1;align=left;" parent="gpSDU0lfajovMPE759uH-73" vertex="1">
          <mxGeometry x="350" y="14" width="321.68" height="27.62" as="geometry" />
        </mxCell>
        <mxCell id="gpSDU0lfajovMPE759uH-75" value="" style="shape=curlyBracket;whiteSpace=wrap;html=1;rounded=1;labelPosition=left;verticalLabelPosition=middle;align=right;verticalAlign=middle;" parent="bGcx2p2PE-QoZrHpDItu-21" vertex="1">
          <mxGeometry x="57.76999999999998" y="561.52" width="20" height="173.82" as="geometry" />
        </mxCell>
        <mxCell id="gpSDU0lfajovMPE759uH-76" value="&lt;font style=&quot;font-size: 15px;&quot;&gt;bei Ja&lt;/font&gt;" style="rounded=1;whiteSpace=wrap;html=1;" parent="bGcx2p2PE-QoZrHpDItu-21" vertex="1">
          <mxGeometry x="19.289999999999964" y="618.4281818181818" width="40" height="60" as="geometry" />
        </mxCell>
        <mxCell id="bGcx2p2PE-QoZrHpDItu-37" value="&lt;table&gt;&lt;tbody&gt;&lt;tr&gt;&lt;td&gt;&lt;br&gt;&lt;/td&gt;&lt;/tr&gt;&lt;tr&gt;&lt;td&gt;&lt;br&gt;&lt;/td&gt;&lt;/tr&gt;&lt;tr&gt;&lt;td&gt;&lt;br&gt;&lt;/td&gt;&lt;/tr&gt;&lt;tr&gt;&lt;td&gt;&lt;br&gt;&lt;/td&gt;&lt;/tr&gt;&lt;tr&gt;&lt;td&gt;&lt;br&gt;&lt;/td&gt;&lt;/tr&gt;&lt;/tbody&gt;&lt;/table&gt;" style="strokeWidth=1;shadow=0;dashed=0;align=center;html=1;shape=mxgraph.mockup.forms.comboBox;strokeColor=#999999;fillColor=#ddeeff;align=left;fillColor2=#aaddff;mainText=;fontColor=#666666;fontSize=17;spacingLeft=3;container=1;movable=0;resizable=0;rotatable=0;deletable=0;editable=0;locked=1;connectable=0;" parent="bGcx2p2PE-QoZrHpDItu-20" vertex="1">
          <mxGeometry x="212.59" y="50" width="537.41" height="30" as="geometry" />
        </mxCell>
        <mxCell id="gpSDU0lfajovMPE759uH-27" value="&lt;font style=&quot;font-size: 16px;&quot;&gt;Wie ist die Tageszeit des Intervalls&lt;/font&gt;" style="html=1;whiteSpace=wrap;container=1;align=left;movable=1;resizable=1;rotatable=1;deletable=1;editable=1;locked=0;connectable=1;" parent="bGcx2p2PE-QoZrHpDItu-20" vertex="1">
          <mxGeometry x="90" y="355.38" width="680.89" height="49.23" as="geometry" />
        </mxCell>
        <mxCell id="gpSDU0lfajovMPE759uH-28" value="" style="strokeWidth=1;shadow=0;dashed=0;align=center;html=1;shape=mxgraph.mockup.forms.comboBox;strokeColor=#999999;fillColor=#ddeeff;align=left;fillColor2=#aaddff;mainText=;fontColor=#666666;fontSize=17;spacingLeft=3;movable=1;resizable=1;rotatable=1;deletable=1;editable=1;locked=0;connectable=1;" parent="gpSDU0lfajovMPE759uH-27" vertex="1">
          <mxGeometry x="270" y="4.92" width="404.27" height="34.46" as="geometry" />
        </mxCell>
        <mxCell id="gpSDU0lfajovMPE759uH-64" value="" style="shape=mxgraph.sysml.x;" parent="bGcx2p2PE-QoZrHpDItu-20" vertex="1">
          <mxGeometry x="360.59000000000015" y="230" width="20" height="20" as="geometry" />
        </mxCell>
        <mxCell id="gpSDU0lfajovMPE759uH-78" value="" style="shape=mxgraph.sysml.x;" parent="bGcx2p2PE-QoZrHpDItu-20" vertex="1">
          <mxGeometry x="360.59000000000015" y="500" width="20" height="20" as="geometry" />
        </mxCell>
        <mxCell id="bGcx2p2PE-QoZrHpDItu-19" value="" style="group" parent="1" vertex="1" connectable="0">
          <mxGeometry x="-2460" y="1180" width="790" height="290" as="geometry" />
        </mxCell>
        <mxCell id="bGcx2p2PE-QoZrHpDItu-1" value="Information zur Meldeperson" style="html=1;whiteSpace=wrap;container=0;verticalAlign=top;align=left;fontStyle=1;fontSize=22;" parent="bGcx2p2PE-QoZrHpDItu-19" vertex="1">
          <mxGeometry width="790" height="290" as="geometry" />
        </mxCell>
        <mxCell id="bGcx2p2PE-QoZrHpDItu-9" value="&lt;font style=&quot;font-size: 16px;&quot;&gt;Personalnummer&lt;/font&gt;" style="html=1;whiteSpace=wrap;container=1;align=left;" parent="bGcx2p2PE-QoZrHpDItu-19" vertex="1">
          <mxGeometry x="18.41" y="55.24" width="743.19" height="44.76" as="geometry" />
        </mxCell>
        <mxCell id="bGcx2p2PE-QoZrHpDItu-12" value="&lt;font style=&quot;font-size: 14px;&quot;&gt;Freitextfeld&lt;/font&gt;" style="rounded=0;whiteSpace=wrap;html=1;align=left;" parent="bGcx2p2PE-QoZrHpDItu-9" vertex="1">
          <mxGeometry x="151.59" y="9.77" width="588.41" height="25.23" as="geometry" />
        </mxCell>
        <mxCell id="bGcx2p2PE-QoZrHpDItu-13" value="&lt;font style=&quot;font-size: 16px;&quot;&gt;Vorname&lt;/font&gt;" style="html=1;whiteSpace=wrap;container=1;align=left;" parent="bGcx2p2PE-QoZrHpDItu-19" vertex="1">
          <mxGeometry x="18.409999999999854" y="110.47619047619045" width="743.19" height="41.42857142857142" as="geometry" />
        </mxCell>
        <mxCell id="bGcx2p2PE-QoZrHpDItu-14" value="&lt;font style=&quot;font-size: 14px;&quot;&gt;Freitextfeld&lt;/font&gt;" style="rounded=0;whiteSpace=wrap;html=1;align=left;" parent="bGcx2p2PE-QoZrHpDItu-13" vertex="1">
          <mxGeometry x="151.59" y="6.904761904761903" width="588.41" height="27.619047619047613" as="geometry" />
        </mxCell>
        <mxCell id="bGcx2p2PE-QoZrHpDItu-15" value="&lt;font style=&quot;font-size: 16px;&quot;&gt;Nachname&lt;/font&gt;" style="html=1;whiteSpace=wrap;container=1;align=left;" parent="bGcx2p2PE-QoZrHpDItu-19" vertex="1">
          <mxGeometry x="18.41" y="165.71" width="743.19" height="44.29" as="geometry" />
        </mxCell>
        <mxCell id="bGcx2p2PE-QoZrHpDItu-17" value="&lt;font style=&quot;font-size: 16px;&quot;&gt;Email&lt;/font&gt;" style="html=1;whiteSpace=wrap;container=1;align=left;" parent="bGcx2p2PE-QoZrHpDItu-19" vertex="1">
          <mxGeometry x="18.409999999999854" y="220.9523809523809" width="743.19" height="41.42857142857142" as="geometry" />
        </mxCell>
        <mxCell id="bGcx2p2PE-QoZrHpDItu-18" value="&lt;font style=&quot;font-size: 14px;&quot;&gt;Freitextfeld&lt;/font&gt;" style="rounded=0;whiteSpace=wrap;html=1;align=left;" parent="bGcx2p2PE-QoZrHpDItu-17" vertex="1">
          <mxGeometry x="151.59" y="6.904761904761903" width="588.41" height="27.619047619047613" as="geometry" />
        </mxCell>
        <mxCell id="bGcx2p2PE-QoZrHpDItu-16" value="&lt;font style=&quot;font-size: 14px;&quot;&gt;Freitextfeld&lt;/font&gt;" style="rounded=0;whiteSpace=wrap;html=1;align=left;" parent="bGcx2p2PE-QoZrHpDItu-19" vertex="1">
          <mxGeometry x="169.99999999999986" y="174.25000000000003" width="588.41" height="27.22" as="geometry" />
        </mxCell>
        <mxCell id="FmK_zJNC0J271hB84PhB-91" value="&lt;font style=&quot;font-size: 14px;&quot;&gt;Braucht es diese Felder? Nur, wenn man es für jemand anderen ausfüllt?&lt;/font&gt;" style="rounded=1;whiteSpace=wrap;html=1;fillColor=#D5E8D4;" parent="bGcx2p2PE-QoZrHpDItu-19" vertex="1">
          <mxGeometry x="360" y="10" width="290" height="70" as="geometry" />
        </mxCell>
        <mxCell id="bGcx2p2PE-QoZrHpDItu-31" value="" style="strokeWidth=1;shadow=0;dashed=0;align=center;html=1;shape=mxgraph.mockup.forms.rrect;rSize=0;strokeColor=#999999;fillColor=#ffffff;" parent="1" vertex="1">
          <mxGeometry x="-1560" y="-1390" width="450" height="140" as="geometry" />
        </mxCell>
        <mxCell id="bGcx2p2PE-QoZrHpDItu-33" value="Methotrexat (MTX)" style="strokeWidth=1;shadow=0;dashed=0;align=center;html=1;shape=mxgraph.mockup.forms.anchor;fontSize=17;fontColor=#666666;align=left;spacingLeft=5;resizeWidth=1;whiteSpace=wrap;" parent="bGcx2p2PE-QoZrHpDItu-31" vertex="1">
          <mxGeometry width="450.00000000000006" height="20" relative="1" as="geometry">
            <mxPoint y="30" as="offset" />
          </mxGeometry>
        </mxCell>
        <mxCell id="bGcx2p2PE-QoZrHpDItu-34" value="Rosuvastatin" style="strokeWidth=1;shadow=0;dashed=0;align=center;html=1;shape=mxgraph.mockup.forms.anchor;fontSize=17;fontColor=#666666;align=left;spacingLeft=5;resizeWidth=1;whiteSpace=wrap;" parent="bGcx2p2PE-QoZrHpDItu-31" vertex="1">
          <mxGeometry width="450.00000000000006" height="20" relative="1" as="geometry">
            <mxPoint y="50" as="offset" />
          </mxGeometry>
        </mxCell>
        <mxCell id="bGcx2p2PE-QoZrHpDItu-35" value="..." style="strokeWidth=1;shadow=0;dashed=0;align=center;html=1;shape=mxgraph.mockup.forms.rrect;rSize=0;fontSize=17;fontColor=#666666;align=left;spacingLeft=5;fillColor=#ddeeff;strokeColor=none;resizeWidth=1;whiteSpace=wrap;" parent="bGcx2p2PE-QoZrHpDItu-31" vertex="1">
          <mxGeometry width="450.00000000000006" height="20" relative="1" as="geometry">
            <mxPoint y="70" as="offset" />
          </mxGeometry>
        </mxCell>
        <mxCell id="bGcx2p2PE-QoZrHpDItu-36" value="..." style="strokeWidth=1;shadow=0;dashed=0;align=center;html=1;shape=mxgraph.mockup.forms.anchor;fontSize=17;fontColor=#666666;align=left;spacingLeft=5;resizeWidth=1;whiteSpace=wrap;" parent="bGcx2p2PE-QoZrHpDItu-31" vertex="1">
          <mxGeometry width="450.00000000000006" height="20" relative="1" as="geometry">
            <mxPoint y="90" as="offset" />
          </mxGeometry>
        </mxCell>
        <mxCell id="gpSDU0lfajovMPE759uH-52" value="&lt;font style=&quot;font-size: 16px;&quot;&gt;Keine Mehrfachauswahl&lt;/font&gt;" style="rounded=1;whiteSpace=wrap;html=1;" parent="bGcx2p2PE-QoZrHpDItu-31" vertex="1">
          <mxGeometry x="260" y="40" width="150" height="60" as="geometry" />
        </mxCell>
        <mxCell id="FmK_zJNC0J271hB84PhB-18" value="" style="strokeWidth=1;shadow=0;dashed=0;align=center;html=1;shape=mxgraph.mockup.forms.rrect;rSize=0;strokeColor=#999999;fillColor=#ffffff;" parent="1" vertex="1">
          <mxGeometry x="-1620" y="-540" width="790" height="120" as="geometry" />
        </mxCell>
        <mxCell id="FmK_zJNC0J271hB84PhB-20" value="Kein Schaden (kein erkennbarer Schaden, keine Symptome)" style="strokeWidth=1;shadow=0;dashed=0;align=center;html=1;shape=mxgraph.mockup.forms.anchor;fontSize=17;fontColor=#666666;align=left;spacingLeft=5;resizeWidth=1;whiteSpace=wrap;strokeColor=#000000;" parent="FmK_zJNC0J271hB84PhB-18" vertex="1">
          <mxGeometry width="789.9999999999999" height="20" relative="1" as="geometry">
            <mxPoint y="10" as="offset" />
          </mxGeometry>
        </mxCell>
        <mxCell id="FmK_zJNC0J271hB84PhB-21" value="Geringer Schaden (Vollständige Erholung innert weniger Stunden zu erwarten)" style="strokeWidth=1;shadow=0;dashed=0;align=center;html=1;shape=mxgraph.mockup.forms.anchor;fontSize=17;fontColor=#666666;align=left;spacingLeft=5;resizeWidth=1;whiteSpace=wrap;" parent="FmK_zJNC0J271hB84PhB-18" vertex="1">
          <mxGeometry width="789.9999999999999" height="20" relative="1" as="geometry">
            <mxPoint y="30" as="offset" />
          </mxGeometry>
        </mxCell>
        <mxCell id="FmK_zJNC0J271hB84PhB-22" value="Mittelschwerer Schaden (vollständige Erholung innert 7 Tagen zu erwarten)" style="strokeWidth=1;shadow=0;dashed=0;align=center;html=1;shape=mxgraph.mockup.forms.rrect;rSize=0;fontSize=17;fontColor=#666666;align=left;spacingLeft=5;fillColor=#ddeeff;strokeColor=none;resizeWidth=1;whiteSpace=wrap;" parent="FmK_zJNC0J271hB84PhB-18" vertex="1">
          <mxGeometry width="789.9999999999999" height="20" relative="1" as="geometry">
            <mxPoint y="50" as="offset" />
          </mxGeometry>
        </mxCell>
        <mxCell id="FmK_zJNC0J271hB84PhB-23" value="Schwerer Schaden (kann zu langfristigen/dauerhaften Schäden führen)" style="strokeWidth=1;shadow=0;dashed=0;align=center;html=1;shape=mxgraph.mockup.forms.anchor;fontSize=17;fontColor=#666666;align=left;spacingLeft=5;resizeWidth=1;whiteSpace=wrap;" parent="FmK_zJNC0J271hB84PhB-18" vertex="1">
          <mxGeometry width="789.9999999999999" height="20" relative="1" as="geometry">
            <mxPoint y="70" as="offset" />
          </mxGeometry>
        </mxCell>
        <mxCell id="FmK_zJNC0J271hB84PhB-25" value="Tod (Ereignis führte zu einem unerwarteten Tod)" style="strokeWidth=1;shadow=0;dashed=0;align=center;html=1;shape=mxgraph.mockup.forms.anchor;fontSize=17;fontColor=#666666;align=left;spacingLeft=5;resizeWidth=1;whiteSpace=wrap;" parent="FmK_zJNC0J271hB84PhB-18" vertex="1">
          <mxGeometry y="90.00176470588235" width="789.9999999999999" height="17.647058823529413" as="geometry" />
        </mxCell>
        <mxCell id="DG4VdXtJs0O7hIi2pJMf-6" value="&lt;font style=&quot;font-size: 16px;&quot;&gt;Keine Mehrfachauswahl&lt;/font&gt;" style="rounded=1;whiteSpace=wrap;html=1;" parent="FmK_zJNC0J271hB84PhB-18" vertex="1">
          <mxGeometry x="620" y="47.64999999999998" width="150" height="60" as="geometry" />
        </mxCell>
        <mxCell id="FmK_zJNC0J271hB84PhB-26" value="&lt;font style=&quot;font-size: 18px;&quot;&gt;DOFI im Fall angelegt, wir haben Patienteninformationen, d.h.:&lt;br&gt;PatientenID, Fallnr.,&lt;br&gt;Geburtdatum, Vorname, Nachname etc.&lt;/font&gt;" style="rounded=1;whiteSpace=wrap;html=1;fillColor=#e1d5e7;strokeColor=#9673a6;" parent="1" vertex="1">
          <mxGeometry x="-3015" y="-180" width="300" height="130" as="geometry" />
        </mxCell>
        <mxCell id="FmK_zJNC0J271hB84PhB-29" value="" style="strokeWidth=1;shadow=0;dashed=0;align=center;html=1;shape=mxgraph.mockup.forms.rrect;rSize=5;strokeColor=#999999;fillColor=#ffffff;" parent="1" vertex="1">
          <mxGeometry x="-1470" y="-398.38" width="170" height="150" as="geometry" />
        </mxCell>
        <mxCell id="FmK_zJNC0J271hB84PhB-30" value="October 2014" style="strokeWidth=1;shadow=0;dashed=0;align=center;html=1;shape=mxgraph.mockup.forms.anchor;fontColor=#999999;" parent="FmK_zJNC0J271hB84PhB-29" vertex="1">
          <mxGeometry x="31.875000000000004" y="6.857142857142857" width="106.25000000000001" height="17.142857142857142" as="geometry" />
        </mxCell>
        <mxCell id="FmK_zJNC0J271hB84PhB-31" value="&lt;" style="strokeWidth=1;shadow=0;dashed=0;align=center;html=1;shape=mxgraph.mockup.forms.rrect;rSize=4;strokeColor=#999999;fontColor=#008cff;fontSize=19;fontStyle=1;" parent="FmK_zJNC0J271hB84PhB-29" vertex="1">
          <mxGeometry x="8.5" y="6.857142857142857" width="26.562500000000004" height="17.142857142857142" as="geometry" />
        </mxCell>
        <mxCell id="FmK_zJNC0J271hB84PhB-32" value="&gt;" style="strokeWidth=1;shadow=0;dashed=0;align=center;html=1;shape=mxgraph.mockup.forms.rrect;rSize=4;strokeColor=#999999;fontColor=#008cff;fontSize=19;fontStyle=1;" parent="FmK_zJNC0J271hB84PhB-29" vertex="1">
          <mxGeometry x="134.9375" y="6.857142857142857" width="26.562500000000004" height="17.142857142857142" as="geometry" />
        </mxCell>
        <mxCell id="FmK_zJNC0J271hB84PhB-33" value="Mo" style="strokeWidth=1;shadow=0;dashed=0;align=center;html=1;shape=mxgraph.mockup.forms.anchor;fontColor=#999999;" parent="FmK_zJNC0J271hB84PhB-29" vertex="1">
          <mxGeometry x="10.625" y="24" width="21.25" height="17.142857142857142" as="geometry" />
        </mxCell>
        <mxCell id="FmK_zJNC0J271hB84PhB-34" value="Tu" style="strokeWidth=1;shadow=0;dashed=0;align=center;html=1;shape=mxgraph.mockup.forms.anchor;fontColor=#999999;" parent="FmK_zJNC0J271hB84PhB-29" vertex="1">
          <mxGeometry x="31.875000000000004" y="24" width="21.25" height="17.142857142857142" as="geometry" />
        </mxCell>
        <mxCell id="FmK_zJNC0J271hB84PhB-35" value="We" style="strokeWidth=1;shadow=0;dashed=0;align=center;html=1;shape=mxgraph.mockup.forms.anchor;fontColor=#999999;" parent="FmK_zJNC0J271hB84PhB-29" vertex="1">
          <mxGeometry x="53.12500000000001" y="24" width="21.25" height="17.142857142857142" as="geometry" />
        </mxCell>
        <mxCell id="FmK_zJNC0J271hB84PhB-36" value="Th" style="strokeWidth=1;shadow=0;dashed=0;align=center;html=1;shape=mxgraph.mockup.forms.anchor;fontColor=#999999;" parent="FmK_zJNC0J271hB84PhB-29" vertex="1">
          <mxGeometry x="74.375" y="24" width="21.25" height="17.142857142857142" as="geometry" />
        </mxCell>
        <mxCell id="FmK_zJNC0J271hB84PhB-37" value="Fr" style="strokeWidth=1;shadow=0;dashed=0;align=center;html=1;shape=mxgraph.mockup.forms.anchor;fontColor=#999999;" parent="FmK_zJNC0J271hB84PhB-29" vertex="1">
          <mxGeometry x="95.625" y="24" width="21.25" height="17.142857142857142" as="geometry" />
        </mxCell>
        <mxCell id="FmK_zJNC0J271hB84PhB-38" value="Sa" style="strokeWidth=1;shadow=0;dashed=0;align=center;html=1;shape=mxgraph.mockup.forms.anchor;fontColor=#999999;" parent="FmK_zJNC0J271hB84PhB-29" vertex="1">
          <mxGeometry x="116.87500000000001" y="24" width="21.25" height="17.142857142857142" as="geometry" />
        </mxCell>
        <mxCell id="FmK_zJNC0J271hB84PhB-39" value="Su" style="strokeWidth=1;shadow=0;dashed=0;align=center;html=1;shape=mxgraph.mockup.forms.anchor;fontColor=#999999;" parent="FmK_zJNC0J271hB84PhB-29" vertex="1">
          <mxGeometry x="138.125" y="24" width="21.25" height="17.142857142857142" as="geometry" />
        </mxCell>
        <mxCell id="FmK_zJNC0J271hB84PhB-40" value="1" style="strokeWidth=1;shadow=0;dashed=0;align=center;html=1;shape=mxgraph.mockup.forms.rrect;rSize=0;strokeColor=#999999;fontColor=#999999;" parent="FmK_zJNC0J271hB84PhB-29" vertex="1">
          <mxGeometry x="10.625" y="41.14285714285714" width="21.25" height="17.142857142857142" as="geometry" />
        </mxCell>
        <mxCell id="FmK_zJNC0J271hB84PhB-41" value="2" style="strokeWidth=1;shadow=0;dashed=0;align=center;html=1;shape=mxgraph.mockup.forms.rrect;rSize=0;strokeColor=#999999;fontColor=#999999;" parent="FmK_zJNC0J271hB84PhB-29" vertex="1">
          <mxGeometry x="31.875000000000004" y="41.14285714285714" width="21.25" height="17.142857142857142" as="geometry" />
        </mxCell>
        <mxCell id="FmK_zJNC0J271hB84PhB-42" value="3" style="strokeWidth=1;shadow=0;dashed=0;align=center;html=1;shape=mxgraph.mockup.forms.rrect;rSize=0;strokeColor=#999999;fontColor=#999999;" parent="FmK_zJNC0J271hB84PhB-29" vertex="1">
          <mxGeometry x="53.12500000000001" y="41.14285714285714" width="21.25" height="17.142857142857142" as="geometry" />
        </mxCell>
        <mxCell id="FmK_zJNC0J271hB84PhB-43" value="4" style="strokeWidth=1;shadow=0;dashed=0;align=center;html=1;shape=mxgraph.mockup.forms.rrect;rSize=0;strokeColor=#999999;fontColor=#999999;" parent="FmK_zJNC0J271hB84PhB-29" vertex="1">
          <mxGeometry x="74.375" y="41.14285714285714" width="21.25" height="17.142857142857142" as="geometry" />
        </mxCell>
        <mxCell id="FmK_zJNC0J271hB84PhB-44" value="5" style="strokeWidth=1;shadow=0;dashed=0;align=center;html=1;shape=mxgraph.mockup.forms.rrect;rSize=0;strokeColor=#999999;fontColor=#999999;" parent="FmK_zJNC0J271hB84PhB-29" vertex="1">
          <mxGeometry x="95.625" y="41.14285714285714" width="21.25" height="17.142857142857142" as="geometry" />
        </mxCell>
        <mxCell id="FmK_zJNC0J271hB84PhB-45" value="6" style="strokeWidth=1;shadow=0;dashed=0;align=center;html=1;shape=mxgraph.mockup.forms.rrect;rSize=0;strokeColor=#999999;fontColor=#999999;" parent="FmK_zJNC0J271hB84PhB-29" vertex="1">
          <mxGeometry x="116.87500000000001" y="41.14285714285714" width="21.25" height="17.142857142857142" as="geometry" />
        </mxCell>
        <mxCell id="FmK_zJNC0J271hB84PhB-46" value="7" style="strokeWidth=1;shadow=0;dashed=0;align=center;html=1;shape=mxgraph.mockup.forms.rrect;rSize=0;strokeColor=#999999;fontColor=#999999;" parent="FmK_zJNC0J271hB84PhB-29" vertex="1">
          <mxGeometry x="138.125" y="41.14285714285714" width="21.25" height="17.142857142857142" as="geometry" />
        </mxCell>
        <mxCell id="FmK_zJNC0J271hB84PhB-47" value="8" style="strokeWidth=1;shadow=0;dashed=0;align=center;html=1;shape=mxgraph.mockup.forms.rrect;rSize=0;strokeColor=#999999;fontColor=#999999;" parent="FmK_zJNC0J271hB84PhB-29" vertex="1">
          <mxGeometry x="10.625" y="58.285714285714285" width="21.25" height="17.142857142857142" as="geometry" />
        </mxCell>
        <mxCell id="FmK_zJNC0J271hB84PhB-48" value="9" style="strokeWidth=1;shadow=0;dashed=0;align=center;html=1;shape=mxgraph.mockup.forms.rrect;rSize=0;strokeColor=#999999;fontColor=#999999;" parent="FmK_zJNC0J271hB84PhB-29" vertex="1">
          <mxGeometry x="31.875000000000004" y="58.285714285714285" width="21.25" height="17.142857142857142" as="geometry" />
        </mxCell>
        <mxCell id="FmK_zJNC0J271hB84PhB-49" value="10" style="strokeWidth=1;shadow=0;dashed=0;align=center;html=1;shape=mxgraph.mockup.forms.rrect;rSize=0;strokeColor=#999999;fontColor=#999999;" parent="FmK_zJNC0J271hB84PhB-29" vertex="1">
          <mxGeometry x="53.12500000000001" y="58.285714285714285" width="21.25" height="17.142857142857142" as="geometry" />
        </mxCell>
        <mxCell id="FmK_zJNC0J271hB84PhB-50" value="11" style="strokeWidth=1;shadow=0;dashed=0;align=center;html=1;shape=mxgraph.mockup.forms.rrect;rSize=0;strokeColor=#999999;fontColor=#999999;" parent="FmK_zJNC0J271hB84PhB-29" vertex="1">
          <mxGeometry x="74.375" y="58.285714285714285" width="21.25" height="17.142857142857142" as="geometry" />
        </mxCell>
        <mxCell id="FmK_zJNC0J271hB84PhB-51" value="12" style="strokeWidth=1;shadow=0;dashed=0;align=center;html=1;shape=mxgraph.mockup.forms.rrect;rSize=0;strokeColor=#999999;fontColor=#999999;" parent="FmK_zJNC0J271hB84PhB-29" vertex="1">
          <mxGeometry x="95.625" y="58.285714285714285" width="21.25" height="17.142857142857142" as="geometry" />
        </mxCell>
        <mxCell id="FmK_zJNC0J271hB84PhB-52" value="13" style="strokeWidth=1;shadow=0;dashed=0;align=center;html=1;shape=mxgraph.mockup.forms.rrect;rSize=0;strokeColor=#999999;fontColor=#999999;" parent="FmK_zJNC0J271hB84PhB-29" vertex="1">
          <mxGeometry x="116.87500000000001" y="58.285714285714285" width="21.25" height="17.142857142857142" as="geometry" />
        </mxCell>
        <mxCell id="FmK_zJNC0J271hB84PhB-53" value="14" style="strokeWidth=1;shadow=0;dashed=0;align=center;html=1;shape=mxgraph.mockup.forms.rrect;rSize=0;strokeColor=#999999;fontColor=#999999;" parent="FmK_zJNC0J271hB84PhB-29" vertex="1">
          <mxGeometry x="138.125" y="58.285714285714285" width="21.25" height="17.142857142857142" as="geometry" />
        </mxCell>
        <mxCell id="FmK_zJNC0J271hB84PhB-54" value="15" style="strokeWidth=1;shadow=0;dashed=0;align=center;html=1;shape=mxgraph.mockup.forms.rrect;rSize=0;strokeColor=#999999;fontColor=#999999;" parent="FmK_zJNC0J271hB84PhB-29" vertex="1">
          <mxGeometry x="10.625" y="75.42857142857143" width="21.25" height="17.142857142857142" as="geometry" />
        </mxCell>
        <mxCell id="FmK_zJNC0J271hB84PhB-55" value="16" style="strokeWidth=1;shadow=0;dashed=0;align=center;html=1;shape=mxgraph.mockup.forms.rrect;rSize=0;strokeColor=#999999;fontColor=#999999;" parent="FmK_zJNC0J271hB84PhB-29" vertex="1">
          <mxGeometry x="31.875000000000004" y="75.42857142857143" width="21.25" height="17.142857142857142" as="geometry" />
        </mxCell>
        <mxCell id="FmK_zJNC0J271hB84PhB-56" value="17" style="strokeWidth=1;shadow=0;dashed=0;align=center;html=1;shape=mxgraph.mockup.forms.rrect;rSize=0;strokeColor=#999999;fontColor=#999999;" parent="FmK_zJNC0J271hB84PhB-29" vertex="1">
          <mxGeometry x="53.12500000000001" y="75.42857142857143" width="21.25" height="17.142857142857142" as="geometry" />
        </mxCell>
        <mxCell id="FmK_zJNC0J271hB84PhB-57" value="18" style="strokeWidth=1;shadow=0;dashed=0;align=center;html=1;shape=mxgraph.mockup.forms.rrect;rSize=0;strokeColor=#999999;fontColor=#999999;" parent="FmK_zJNC0J271hB84PhB-29" vertex="1">
          <mxGeometry x="74.375" y="75.42857142857143" width="21.25" height="17.142857142857142" as="geometry" />
        </mxCell>
        <mxCell id="FmK_zJNC0J271hB84PhB-58" value="19" style="strokeWidth=1;shadow=0;dashed=0;align=center;html=1;shape=mxgraph.mockup.forms.rrect;rSize=0;strokeColor=#999999;fontColor=#999999;" parent="FmK_zJNC0J271hB84PhB-29" vertex="1">
          <mxGeometry x="95.625" y="75.42857142857143" width="21.25" height="17.142857142857142" as="geometry" />
        </mxCell>
        <mxCell id="FmK_zJNC0J271hB84PhB-59" value="20" style="strokeWidth=1;shadow=0;dashed=0;align=center;html=1;shape=mxgraph.mockup.forms.rrect;rSize=0;strokeColor=#999999;fontColor=#999999;" parent="FmK_zJNC0J271hB84PhB-29" vertex="1">
          <mxGeometry x="116.87500000000001" y="75.42857142857143" width="21.25" height="17.142857142857142" as="geometry" />
        </mxCell>
        <mxCell id="FmK_zJNC0J271hB84PhB-60" value="21" style="strokeWidth=1;shadow=0;dashed=0;align=center;html=1;shape=mxgraph.mockup.forms.rrect;rSize=0;strokeColor=#999999;fontColor=#999999;" parent="FmK_zJNC0J271hB84PhB-29" vertex="1">
          <mxGeometry x="138.125" y="75.42857142857143" width="21.25" height="17.142857142857142" as="geometry" />
        </mxCell>
        <mxCell id="FmK_zJNC0J271hB84PhB-61" value="22" style="strokeWidth=1;shadow=0;dashed=0;align=center;html=1;shape=mxgraph.mockup.forms.rrect;rSize=0;strokeColor=#999999;fontColor=#999999;" parent="FmK_zJNC0J271hB84PhB-29" vertex="1">
          <mxGeometry x="10.625" y="92.57142857142857" width="21.25" height="17.142857142857142" as="geometry" />
        </mxCell>
        <mxCell id="FmK_zJNC0J271hB84PhB-62" value="23" style="strokeWidth=1;shadow=0;dashed=0;align=center;html=1;shape=mxgraph.mockup.forms.rrect;rSize=0;strokeColor=#999999;fontColor=#999999;" parent="FmK_zJNC0J271hB84PhB-29" vertex="1">
          <mxGeometry x="31.875000000000004" y="92.57142857142857" width="21.25" height="17.142857142857142" as="geometry" />
        </mxCell>
        <mxCell id="FmK_zJNC0J271hB84PhB-63" value="25" style="strokeWidth=1;shadow=0;dashed=0;align=center;html=1;shape=mxgraph.mockup.forms.rrect;rSize=0;strokeColor=#999999;fontColor=#999999;" parent="FmK_zJNC0J271hB84PhB-29" vertex="1">
          <mxGeometry x="74.375" y="92.57142857142857" width="21.25" height="17.142857142857142" as="geometry" />
        </mxCell>
        <mxCell id="FmK_zJNC0J271hB84PhB-64" value="26" style="strokeWidth=1;shadow=0;dashed=0;align=center;html=1;shape=mxgraph.mockup.forms.rrect;rSize=0;strokeColor=#999999;fontColor=#999999;" parent="FmK_zJNC0J271hB84PhB-29" vertex="1">
          <mxGeometry x="95.625" y="92.57142857142857" width="21.25" height="17.142857142857142" as="geometry" />
        </mxCell>
        <mxCell id="FmK_zJNC0J271hB84PhB-65" value="27" style="strokeWidth=1;shadow=0;dashed=0;align=center;html=1;shape=mxgraph.mockup.forms.rrect;rSize=0;strokeColor=#999999;fontColor=#999999;" parent="FmK_zJNC0J271hB84PhB-29" vertex="1">
          <mxGeometry x="116.87500000000001" y="92.57142857142857" width="21.25" height="17.142857142857142" as="geometry" />
        </mxCell>
        <mxCell id="FmK_zJNC0J271hB84PhB-66" value="28" style="strokeWidth=1;shadow=0;dashed=0;align=center;html=1;shape=mxgraph.mockup.forms.rrect;rSize=0;strokeColor=#999999;fontColor=#999999;" parent="FmK_zJNC0J271hB84PhB-29" vertex="1">
          <mxGeometry x="138.125" y="92.57142857142857" width="21.25" height="17.142857142857142" as="geometry" />
        </mxCell>
        <mxCell id="FmK_zJNC0J271hB84PhB-67" value="29" style="strokeWidth=1;shadow=0;dashed=0;align=center;html=1;shape=mxgraph.mockup.forms.rrect;rSize=0;strokeColor=#999999;fontColor=#999999;" parent="FmK_zJNC0J271hB84PhB-29" vertex="1">
          <mxGeometry x="10.625" y="109.71428571428571" width="21.25" height="17.142857142857142" as="geometry" />
        </mxCell>
        <mxCell id="FmK_zJNC0J271hB84PhB-68" value="30" style="strokeWidth=1;shadow=0;dashed=0;align=center;html=1;shape=mxgraph.mockup.forms.rrect;rSize=0;strokeColor=#999999;fontColor=#999999;" parent="FmK_zJNC0J271hB84PhB-29" vertex="1">
          <mxGeometry x="31.875000000000004" y="109.71428571428571" width="21.25" height="17.142857142857142" as="geometry" />
        </mxCell>
        <mxCell id="FmK_zJNC0J271hB84PhB-69" value="31" style="strokeWidth=1;shadow=0;dashed=0;align=center;html=1;shape=mxgraph.mockup.forms.rrect;rSize=0;strokeColor=#999999;fontColor=#999999;" parent="FmK_zJNC0J271hB84PhB-29" vertex="1">
          <mxGeometry x="53.12500000000001" y="109.71428571428571" width="21.25" height="17.142857142857142" as="geometry" />
        </mxCell>
        <mxCell id="FmK_zJNC0J271hB84PhB-70" value="1" style="strokeWidth=1;shadow=0;dashed=0;align=center;html=1;shape=mxgraph.mockup.forms.rrect;rSize=0;strokeColor=#999999;fontColor=#999999;fillColor=#ddeeff;" parent="FmK_zJNC0J271hB84PhB-29" vertex="1">
          <mxGeometry x="74.375" y="109.71428571428571" width="21.25" height="17.142857142857142" as="geometry" />
        </mxCell>
        <mxCell id="FmK_zJNC0J271hB84PhB-71" value="2" style="strokeWidth=1;shadow=0;dashed=0;align=center;html=1;shape=mxgraph.mockup.forms.rrect;rSize=0;strokeColor=#999999;fontColor=#999999;fillColor=#ddeeff;" parent="FmK_zJNC0J271hB84PhB-29" vertex="1">
          <mxGeometry x="95.625" y="109.71428571428571" width="21.25" height="17.142857142857142" as="geometry" />
        </mxCell>
        <mxCell id="FmK_zJNC0J271hB84PhB-72" value="3" style="strokeWidth=1;shadow=0;dashed=0;align=center;html=1;shape=mxgraph.mockup.forms.rrect;rSize=0;strokeColor=#999999;fontColor=#999999;fillColor=#ddeeff;" parent="FmK_zJNC0J271hB84PhB-29" vertex="1">
          <mxGeometry x="116.87500000000001" y="109.71428571428571" width="21.25" height="17.142857142857142" as="geometry" />
        </mxCell>
        <mxCell id="FmK_zJNC0J271hB84PhB-73" value="4" style="strokeWidth=1;shadow=0;dashed=0;align=center;html=1;shape=mxgraph.mockup.forms.rrect;rSize=0;strokeColor=#999999;fontColor=#999999;fillColor=#ddeeff;" parent="FmK_zJNC0J271hB84PhB-29" vertex="1">
          <mxGeometry x="138.125" y="109.71428571428571" width="21.25" height="17.142857142857142" as="geometry" />
        </mxCell>
        <mxCell id="FmK_zJNC0J271hB84PhB-74" value="5" style="strokeWidth=1;shadow=0;dashed=0;align=center;html=1;shape=mxgraph.mockup.forms.rrect;rSize=0;strokeColor=#999999;fontColor=#999999;fillColor=#ddeeff;" parent="FmK_zJNC0J271hB84PhB-29" vertex="1">
          <mxGeometry x="10.625" y="126.85714285714285" width="21.25" height="17.142857142857142" as="geometry" />
        </mxCell>
        <mxCell id="FmK_zJNC0J271hB84PhB-75" value="6" style="strokeWidth=1;shadow=0;dashed=0;align=center;html=1;shape=mxgraph.mockup.forms.rrect;rSize=0;strokeColor=#999999;fontColor=#999999;fillColor=#ddeeff;" parent="FmK_zJNC0J271hB84PhB-29" vertex="1">
          <mxGeometry x="31.875000000000004" y="126.85714285714285" width="21.25" height="17.142857142857142" as="geometry" />
        </mxCell>
        <mxCell id="FmK_zJNC0J271hB84PhB-76" value="7" style="strokeWidth=1;shadow=0;dashed=0;align=center;html=1;shape=mxgraph.mockup.forms.rrect;rSize=0;strokeColor=#999999;fontColor=#999999;fillColor=#ddeeff;" parent="FmK_zJNC0J271hB84PhB-29" vertex="1">
          <mxGeometry x="53.12500000000001" y="126.85714285714285" width="21.25" height="17.142857142857142" as="geometry" />
        </mxCell>
        <mxCell id="FmK_zJNC0J271hB84PhB-77" value="8" style="strokeWidth=1;shadow=0;dashed=0;align=center;html=1;shape=mxgraph.mockup.forms.rrect;rSize=0;strokeColor=#999999;fontColor=#999999;fillColor=#ddeeff;" parent="FmK_zJNC0J271hB84PhB-29" vertex="1">
          <mxGeometry x="74.375" y="126.85714285714285" width="21.25" height="17.142857142857142" as="geometry" />
        </mxCell>
        <mxCell id="FmK_zJNC0J271hB84PhB-78" value="9" style="strokeWidth=1;shadow=0;dashed=0;align=center;html=1;shape=mxgraph.mockup.forms.rrect;rSize=0;strokeColor=#999999;fontColor=#999999;fillColor=#ddeeff;" parent="FmK_zJNC0J271hB84PhB-29" vertex="1">
          <mxGeometry x="95.625" y="126.85714285714285" width="21.25" height="17.142857142857142" as="geometry" />
        </mxCell>
        <mxCell id="FmK_zJNC0J271hB84PhB-79" value="10" style="strokeWidth=1;shadow=0;dashed=0;align=center;html=1;shape=mxgraph.mockup.forms.rrect;rSize=0;strokeColor=#999999;fontColor=#999999;fillColor=#ddeeff;" parent="FmK_zJNC0J271hB84PhB-29" vertex="1">
          <mxGeometry x="116.87500000000001" y="126.85714285714285" width="21.25" height="17.142857142857142" as="geometry" />
        </mxCell>
        <mxCell id="FmK_zJNC0J271hB84PhB-80" value="11" style="strokeWidth=1;shadow=0;dashed=0;align=center;html=1;shape=mxgraph.mockup.forms.rrect;rSize=0;strokeColor=#999999;fontColor=#999999;fillColor=#ddeeff;" parent="FmK_zJNC0J271hB84PhB-29" vertex="1">
          <mxGeometry x="138.125" y="126.85714285714285" width="21.25" height="17.142857142857142" as="geometry" />
        </mxCell>
        <mxCell id="FmK_zJNC0J271hB84PhB-81" value="24" style="strokeWidth=1;shadow=0;dashed=0;align=center;html=1;shape=mxgraph.mockup.forms.rrect;rSize=0;strokeColor=#ff0000;fontColor=#ffffff;strokeWidth=2;fillColor=#008cff;" parent="FmK_zJNC0J271hB84PhB-29" vertex="1">
          <mxGeometry x="53.12500000000001" y="92.57142857142857" width="21.25" height="17.142857142857142" as="geometry" />
        </mxCell>
        <mxCell id="FmK_zJNC0J271hB84PhB-139" value="" style="endArrow=classic;html=1;rounded=0;entryX=0.004;entryY=0.604;entryDx=0;entryDy=0;entryPerimeter=0;exitX=1;exitY=0.5;exitDx=0;exitDy=0;" parent="1" source="FmK_zJNC0J271hB84PhB-131" target="FmK_zJNC0J271hB84PhB-29" edge="1">
          <mxGeometry width="50" height="50" relative="1" as="geometry">
            <mxPoint x="-1667" y="-375" as="sourcePoint" />
            <mxPoint x="-1448" y="-530" as="targetPoint" />
          </mxGeometry>
        </mxCell>
        <mxCell id="FmK_zJNC0J271hB84PhB-82" value="" style="endArrow=classic;html=1;rounded=0;entryX=-0.008;entryY=0.452;entryDx=0;entryDy=0;entryPerimeter=0;exitX=1;exitY=0.5;exitDx=0;exitDy=0;" parent="1" source="FmK_zJNC0J271hB84PhB-92" target="FmK_zJNC0J271hB84PhB-29" edge="1">
          <mxGeometry width="50" height="50" relative="1" as="geometry">
            <mxPoint x="-1640" y="-450" as="sourcePoint" />
            <mxPoint x="-1590" y="-500" as="targetPoint" />
          </mxGeometry>
        </mxCell>
        <mxCell id="FmK_zJNC0J271hB84PhB-24" value="" style="endArrow=classic;html=1;rounded=0;exitX=1;exitY=0.571;exitDx=0;exitDy=0;exitPerimeter=0;entryX=-0.007;entryY=0.4;entryDx=0;entryDy=0;entryPerimeter=0;" parent="1" source="FmK_zJNC0J271hB84PhB-16" target="FmK_zJNC0J271hB84PhB-21" edge="1">
          <mxGeometry width="50" height="50" relative="1" as="geometry">
            <mxPoint x="-1600" y="-534" as="sourcePoint" />
            <mxPoint x="-1550" y="-584" as="targetPoint" />
          </mxGeometry>
        </mxCell>
        <mxCell id="MbmpIsr86u1NgLFeS8km-8" value="&lt;span style=&quot;font-size: 18px;&quot;&gt;Feldtypen:&lt;br&gt;&lt;ul&gt;&lt;li&gt;&lt;span style=&quot;font-size: 18px;&quot;&gt;Datum&lt;/span&gt;&lt;/li&gt;&lt;li&gt;&lt;span style=&quot;font-size: 18px;&quot;&gt;Zeit&lt;/span&gt;&lt;/li&gt;&lt;li&gt;&lt;span style=&quot;font-size: 18px;&quot;&gt;Ganzzahl&lt;/span&gt;&lt;/li&gt;&lt;li&gt;&lt;span style=&quot;font-size: 18px;&quot;&gt;Real-Zahl (Kommazahlen)&lt;/span&gt;&lt;/li&gt;&lt;li&gt;&lt;span style=&quot;font-size: 18px;&quot;&gt;Text (einzeilig)&lt;/span&gt;&lt;/li&gt;&lt;li&gt;&lt;span style=&quot;font-size: 18px;&quot;&gt;Auswahl&lt;/span&gt;&lt;/li&gt;&lt;li&gt;&lt;span style=&quot;font-size: 18px;&quot;&gt;J/N-Feld&lt;/span&gt;&lt;/li&gt;&lt;li&gt;&lt;span style=&quot;font-size: 18px;&quot;&gt;Memo (Textfeld mehrzeilig)&lt;/span&gt;&lt;/li&gt;&lt;li&gt;&lt;span style=&quot;font-size: 18px;&quot;&gt;Schlüsselauswahl&lt;/span&gt;&lt;/li&gt;&lt;li&gt;&lt;span style=&quot;font-size: 18px;&quot;&gt;Darstellung = Titelzeile (kein Eingabefeld)&lt;/span&gt;&lt;/li&gt;&lt;li&gt;&lt;span style=&quot;font-size: 18px;&quot;&gt;J/N-Gruppe mit nachfolgenden Feldern bei Auswahl von Ja&lt;/span&gt;&lt;/li&gt;&lt;li&gt;&lt;span style=&quot;font-size: 18px;&quot;&gt;Tupelfeld&lt;/span&gt;&lt;/li&gt;&lt;/ul&gt;&lt;/span&gt;" style="rounded=1;whiteSpace=wrap;html=1;fillColor=#e1d5e7;align=left;strokeColor=#9673a6;" parent="1" vertex="1">
          <mxGeometry x="-3020" y="-670" width="300" height="470" as="geometry" />
        </mxCell>
        <mxCell id="FmK_zJNC0J271hB84PhB-85" value="Ergriffene Massnahmen" style="html=1;whiteSpace=wrap;container=1;verticalAlign=top;align=left;fontStyle=1;fontSize=22;" parent="1" vertex="1">
          <mxGeometry x="-2453.1299999999997" y="780" width="784.06" height="380" as="geometry" />
        </mxCell>
        <mxCell id="FmK_zJNC0J271hB84PhB-118" value="&lt;font style=&quot;font-size: 16px;&quot;&gt;Ergriffene Sofortmassnahmen&lt;/font&gt;" style="html=1;whiteSpace=wrap;container=1;align=left;movable=1;resizable=1;rotatable=1;deletable=1;editable=1;locked=0;connectable=1;fillColor=#f8cecc;strokeColor=#b85450;" parent="FmK_zJNC0J271hB84PhB-85" vertex="1">
          <mxGeometry x="9.84" y="42.4" width="764.1" height="47.6" as="geometry" />
        </mxCell>
        <mxCell id="yxWZDSmVDI_DWrx5P2sv-18" value="" style="strokeWidth=1;shadow=0;dashed=0;align=center;html=1;shape=mxgraph.mockup.forms.comboBox;strokeColor=#999999;fillColor=#ddeeff;align=left;fillColor2=#aaddff;mainText=;fontColor=#666666;fontSize=17;spacingLeft=3;movable=1;resizable=1;rotatable=1;deletable=1;editable=1;locked=0;connectable=1;" parent="FmK_zJNC0J271hB84PhB-118" vertex="1">
          <mxGeometry x="240.0002209404301" y="9.561319444444445" width="516.3704753625412" height="28.47736111111111" as="geometry" />
        </mxCell>
        <mxCell id="FmK_zJNC0J271hB84PhB-128" value="&lt;font style=&quot;font-size: 16px;&quot;&gt;Bemerkungen&lt;/font&gt;" style="html=1;whiteSpace=wrap;container=1;align=left;movable=1;resizable=1;rotatable=1;deletable=1;editable=1;locked=0;connectable=1;" parent="FmK_zJNC0J271hB84PhB-85" vertex="1">
          <mxGeometry x="9.842733518271519" y="160" width="765.6655872315105" height="47.6" as="geometry" />
        </mxCell>
        <mxCell id="FmK_zJNC0J271hB84PhB-129" value="&lt;font style=&quot;font-size: 14px;&quot;&gt;Freitextfeld/ memo&lt;/font&gt;" style="rounded=0;whiteSpace=wrap;html=1;align=left;" parent="FmK_zJNC0J271hB84PhB-128" vertex="1">
          <mxGeometry x="226.54703507145067" y="10.648000000000001" width="526.3149526270638" height="26.294240000000002" as="geometry" />
        </mxCell>
        <mxCell id="MbmpIsr86u1NgLFeS8km-76" value="&lt;font style=&quot;font-size: 16px;&quot;&gt;Muss der Aufenthalt des Patienten verlängert werden?&lt;/font&gt;" style="html=1;whiteSpace=wrap;container=1;align=left;movable=1;resizable=1;rotatable=1;deletable=1;editable=1;locked=0;connectable=1;" parent="FmK_zJNC0J271hB84PhB-85" vertex="1">
          <mxGeometry x="9.194912066664696" y="220" width="765.6655872315105" height="47.6" as="geometry" />
        </mxCell>
        <mxCell id="MbmpIsr86u1NgLFeS8km-78" value="Ja" style="strokeWidth=1;shadow=0;dashed=0;align=center;html=1;shape=mxgraph.mockup.forms.rrect;rSize=0;fillColor=#eeeeee;strokeColor=#999999;gradientColor=#cccccc;align=left;spacingLeft=4;fontSize=17;fontColor=#666666;labelPosition=right;" parent="MbmpIsr86u1NgLFeS8km-76" vertex="1">
          <mxGeometry x="436.0884201284514" y="15" width="14.873847554729293" height="15" as="geometry" />
        </mxCell>
        <mxCell id="MbmpIsr86u1NgLFeS8km-79" value="Nein" style="strokeWidth=1;shadow=0;dashed=0;align=center;html=1;shape=mxgraph.mockup.forms.rrect;rSize=0;fillColor=#eeeeee;strokeColor=#999999;gradientColor=#cccccc;align=left;spacingLeft=4;fontSize=17;fontColor=#666666;labelPosition=right;" parent="MbmpIsr86u1NgLFeS8km-76" vertex="1">
          <mxGeometry x="507.978683309643" y="16.299999999999955" width="14.873847554729293" height="15" as="geometry" />
        </mxCell>
        <mxCell id="yxWZDSmVDI_DWrx5P2sv-12" value="&lt;font style=&quot;font-size: 16px;&quot;&gt;Wurden die Massnahmen bereits durchgeführt?&lt;/font&gt;" style="html=1;whiteSpace=wrap;container=1;align=left;movable=1;resizable=1;rotatable=1;deletable=1;editable=1;locked=0;connectable=1;" parent="FmK_zJNC0J271hB84PhB-85" vertex="1">
          <mxGeometry x="8.27491206666491" y="100" width="765.6655872315105" height="47.6" as="geometry" />
        </mxCell>
        <mxCell id="yxWZDSmVDI_DWrx5P2sv-13" value="Ja" style="strokeWidth=1;shadow=0;dashed=0;align=center;html=1;shape=mxgraph.mockup.forms.rrect;rSize=0;fillColor=#eeeeee;strokeColor=#999999;gradientColor=#cccccc;align=left;spacingLeft=4;fontSize=17;fontColor=#666666;labelPosition=right;" parent="yxWZDSmVDI_DWrx5P2sv-12" vertex="1">
          <mxGeometry x="436.0884201284514" y="15" width="14.873847554729293" height="15" as="geometry" />
        </mxCell>
        <mxCell id="yxWZDSmVDI_DWrx5P2sv-14" value="Nein" style="strokeWidth=1;shadow=0;dashed=0;align=center;html=1;shape=mxgraph.mockup.forms.rrect;rSize=0;fillColor=#eeeeee;strokeColor=#999999;gradientColor=#cccccc;align=left;spacingLeft=4;fontSize=17;fontColor=#666666;labelPosition=right;" parent="yxWZDSmVDI_DWrx5P2sv-12" vertex="1">
          <mxGeometry x="507.978683309643" y="16.299999999999955" width="14.873847554729293" height="15" as="geometry" />
        </mxCell>
        <mxCell id="MbmpIsr86u1NgLFeS8km-27" value="" style="group;movable=1;resizable=1;rotatable=1;deletable=1;editable=1;locked=0;connectable=1;" parent="1" vertex="1" connectable="0">
          <mxGeometry x="-2454.2" y="70" width="782.2" height="690" as="geometry" />
        </mxCell>
        <mxCell id="MbmpIsr86u1NgLFeS8km-28" value="Informationen zum Patienten" style="html=1;whiteSpace=wrap;container=0;verticalAlign=top;align=left;fontStyle=1;fontSize=22;movable=1;resizable=1;rotatable=1;deletable=1;editable=1;locked=0;connectable=1;" parent="MbmpIsr86u1NgLFeS8km-27" vertex="1">
          <mxGeometry width="782.2" height="690" as="geometry" />
        </mxCell>
        <mxCell id="MbmpIsr86u1NgLFeS8km-31" value="&lt;font style=&quot;font-size: 16px;&quot;&gt;Symptome des Patienten&lt;/font&gt;" style="html=1;whiteSpace=wrap;container=1;align=left;movable=1;resizable=1;rotatable=1;deletable=1;editable=1;locked=0;connectable=1;" parent="MbmpIsr86u1NgLFeS8km-27" vertex="1">
          <mxGeometry x="7.35" y="40" width="762.65" height="41.43" as="geometry" />
        </mxCell>
        <mxCell id="yxWZDSmVDI_DWrx5P2sv-17" value="" style="strokeWidth=1;shadow=0;dashed=0;align=center;html=1;shape=mxgraph.mockup.forms.comboBox;strokeColor=#999999;fillColor=#ddeeff;align=left;fillColor2=#aaddff;mainText=;fontColor=#666666;fontSize=17;spacingLeft=3;movable=1;resizable=1;rotatable=1;deletable=1;editable=1;locked=0;connectable=1;" parent="MbmpIsr86u1NgLFeS8km-31" vertex="1">
          <mxGeometry x="202.0240251848959" y="3.4829999999999472" width="551.0699282051282" height="34.461" as="geometry" />
        </mxCell>
        <mxCell id="MbmpIsr86u1NgLFeS8km-9" value="&lt;font style=&quot;font-size: 16px;&quot;&gt;Ist der eGFR-Wert potentiell verfälscht?&lt;/font&gt;" style="html=1;whiteSpace=wrap;container=0;align=left;movable=1;resizable=1;rotatable=1;deletable=1;editable=1;locked=0;connectable=1;" parent="MbmpIsr86u1NgLFeS8km-27" vertex="1">
          <mxGeometry x="9.06" y="150" width="760.94" height="50" as="geometry" />
        </mxCell>
        <mxCell id="MbmpIsr86u1NgLFeS8km-23" value="Nein" style="strokeWidth=1;shadow=0;dashed=0;align=center;html=1;shape=mxgraph.mockup.forms.rrect;rSize=0;fillColor=#eeeeee;strokeColor=#999999;gradientColor=#cccccc;align=left;spacingLeft=4;fontSize=17;fontColor=#666666;labelPosition=right;movable=0;resizable=0;rotatable=0;deletable=0;editable=0;locked=1;connectable=0;" parent="MbmpIsr86u1NgLFeS8km-27" vertex="1">
          <mxGeometry x="434.1956962025317" y="167.5" width="14.851898734177215" height="15" as="geometry" />
        </mxCell>
        <mxCell id="MbmpIsr86u1NgLFeS8km-24" value="&lt;font style=&quot;font-size: 16px;&quot;&gt;Geschätzter eGFR-Wert:&lt;/font&gt;" style="html=1;whiteSpace=wrap;container=1;align=left;movable=1;resizable=1;rotatable=1;deletable=1;editable=1;locked=0;connectable=1;" parent="MbmpIsr86u1NgLFeS8km-27" vertex="1">
          <mxGeometry x="7.35" y="90" width="762.65" height="53.33000000000001" as="geometry" />
        </mxCell>
        <mxCell id="MbmpIsr86u1NgLFeS8km-25" value="&lt;font style=&quot;font-size: 14px;&quot;&gt;Ganzzahl [ml/min]&lt;/font&gt;" style="rounded=0;whiteSpace=wrap;html=1;align=left;" parent="MbmpIsr86u1NgLFeS8km-24" vertex="1">
          <mxGeometry x="229.99071033927981" y="13.328000000000001" width="524.2420520326488" height="26.294240000000002" as="geometry" />
        </mxCell>
        <mxCell id="MbmpIsr86u1NgLFeS8km-22" value="Ja" style="strokeWidth=1;shadow=0;dashed=0;align=center;html=1;shape=mxgraph.mockup.forms.rrect;rSize=0;fillColor=#eeeeee;strokeColor=#999999;gradientColor=#cccccc;align=left;spacingLeft=4;fontSize=17;fontColor=#666666;labelPosition=right;movable=1;resizable=1;rotatable=1;deletable=1;editable=1;locked=0;connectable=1;" parent="MbmpIsr86u1NgLFeS8km-27" vertex="1">
          <mxGeometry x="364.366582278481" y="167.5" width="14.851898734177215" height="15" as="geometry" />
        </mxCell>
        <mxCell id="DG4VdXtJs0O7hIi2pJMf-8" value="&lt;font style=&quot;font-size: 16px;&quot;&gt;Welchen Grund könnte dies haben?&lt;/font&gt;" style="html=1;whiteSpace=wrap;container=1;align=left;movable=1;resizable=1;rotatable=1;deletable=1;editable=1;locked=0;connectable=1;" parent="MbmpIsr86u1NgLFeS8km-27" vertex="1">
          <mxGeometry x="100" y="210" width="671.29" height="130" as="geometry" />
        </mxCell>
        <mxCell id="DG4VdXtJs0O7hIi2pJMf-10" value="" style="strokeWidth=1;shadow=0;dashed=0;align=center;html=1;shape=mxgraph.mockup.forms.rrect;rSize=0;strokeColor=#999999;fillColor=#ffffff;recursiveResize=0;" parent="DG4VdXtJs0O7hIi2pJMf-8" vertex="1">
          <mxGeometry x="292.6099999999997" y="15" width="360" height="100" as="geometry" />
        </mxCell>
        <mxCell id="DG4VdXtJs0O7hIi2pJMf-11" value="Unterschätzung des eGFR-Wertes" style="strokeWidth=1;shadow=0;dashed=0;align=center;html=1;shape=mxgraph.mockup.forms.rrect;rSize=0;fillColor=#eeeeee;strokeColor=#999999;gradientColor=#cccccc;align=left;spacingLeft=4;fontSize=17;fontColor=#666666;labelPosition=right;" parent="DG4VdXtJs0O7hIi2pJMf-10" vertex="1">
          <mxGeometry x="8" y="7.5" width="15" height="15" as="geometry" />
        </mxCell>
        <mxCell id="DG4VdXtJs0O7hIi2pJMf-12" value="Überschätzung des eGFR-Wertes" style="strokeWidth=1;shadow=0;dashed=0;align=center;html=1;shape=mxgraph.mockup.forms.rrect;rSize=0;fillColor=#eeeeee;strokeColor=#999999;gradientColor=#cccccc;align=left;spacingLeft=4;fontSize=17;fontColor=#666666;labelPosition=right;" parent="DG4VdXtJs0O7hIi2pJMf-10" vertex="1">
          <mxGeometry x="8" y="37.5" width="15" height="15" as="geometry" />
        </mxCell>
        <mxCell id="DG4VdXtJs0O7hIi2pJMf-13" value="Falsche Formel" style="strokeWidth=1;shadow=0;dashed=0;align=center;html=1;shape=mxgraph.mockup.forms.checkbox;rSize=0;resizable=0;fillColor=#aaaaaa;strokeColor=#444444;gradientColor=#666666;align=left;spacingLeft=4;fontSize=17;fontColor=#008cff;labelPosition=right;" parent="DG4VdXtJs0O7hIi2pJMf-10" vertex="1">
          <mxGeometry x="8" y="67.5" width="15" height="15" as="geometry" />
        </mxCell>
        <mxCell id="DG4VdXtJs0O7hIi2pJMf-15" value="" style="shape=curlyBracket;whiteSpace=wrap;html=1;rounded=1;labelPosition=left;verticalLabelPosition=middle;align=right;verticalAlign=middle;" parent="MbmpIsr86u1NgLFeS8km-27" vertex="1">
          <mxGeometry x="72.68" y="210" width="20" height="130" as="geometry" />
        </mxCell>
        <mxCell id="DG4VdXtJs0O7hIi2pJMf-16" value="&lt;font style=&quot;font-size: 15px;&quot;&gt;bei Ja&lt;/font&gt;" style="rounded=1;whiteSpace=wrap;html=1;movable=1;resizable=1;rotatable=1;deletable=1;editable=1;locked=0;connectable=1;" parent="MbmpIsr86u1NgLFeS8km-27" vertex="1">
          <mxGeometry x="32.679999999999815" y="244.99999999999997" width="40" height="60" as="geometry" />
        </mxCell>
        <mxCell id="DG4VdXtJs0O7hIi2pJMf-17" value="" style="shape=mxgraph.sysml.x;movable=0;resizable=0;rotatable=0;deletable=0;editable=0;locked=1;connectable=0;" parent="MbmpIsr86u1NgLFeS8km-27" vertex="1">
          <mxGeometry x="359.2199999999998" y="162.5" width="20" height="20" as="geometry" />
        </mxCell>
        <mxCell id="DG4VdXtJs0O7hIi2pJMf-22" value="&lt;font style=&quot;font-size: 16px;&quot;&gt;GFR-Stadium&lt;/font&gt;" style="html=1;whiteSpace=wrap;container=1;align=left;movable=1;resizable=1;rotatable=1;deletable=1;editable=1;locked=0;connectable=1;fillColor=#fff2cc;strokeColor=#d6b656;" parent="MbmpIsr86u1NgLFeS8km-27" vertex="1">
          <mxGeometry x="11.36" y="350" width="761.29" height="47.6" as="geometry" />
        </mxCell>
        <mxCell id="DG4VdXtJs0O7hIi2pJMf-23" value="&lt;font style=&quot;font-size: 14px;&quot;&gt;Ganzzahl [ml/min/1.73m^2]&lt;/font&gt;" style="rounded=0;whiteSpace=wrap;html=1;align=left;" parent="DG4VdXtJs0O7hIi2pJMf-22" vertex="1">
          <mxGeometry x="229.58057808193843" y="13.328000000000001" width="523.3071943774145" height="26.294240000000002" as="geometry" />
        </mxCell>
        <mxCell id="yxWZDSmVDI_DWrx5P2sv-2" value="&lt;font style=&quot;font-size: 16px;&quot;&gt;eGFR-Wert wurde gemessen mittels?&amp;nbsp;&lt;/font&gt;" style="html=1;whiteSpace=wrap;container=1;align=left;movable=1;resizable=1;rotatable=1;deletable=1;editable=1;locked=0;connectable=1;" parent="MbmpIsr86u1NgLFeS8km-27" vertex="1">
          <mxGeometry x="11.36" y="410" width="762.65" height="90" as="geometry" />
        </mxCell>
        <mxCell id="yxWZDSmVDI_DWrx5P2sv-4" value="" style="strokeWidth=1;shadow=0;dashed=0;align=center;html=1;shape=mxgraph.mockup.forms.rrect;rSize=0;strokeColor=#999999;fillColor=#ffffff;recursiveResize=0;movable=0;resizable=0;rotatable=0;deletable=0;editable=0;locked=1;connectable=0;" parent="yxWZDSmVDI_DWrx5P2sv-2" vertex="1">
          <mxGeometry x="382.24999999999955" y="10" width="360" height="66" as="geometry" />
        </mxCell>
        <mxCell id="yxWZDSmVDI_DWrx5P2sv-5" value="Kreatinin" style="strokeWidth=1;shadow=0;dashed=0;align=center;html=1;shape=mxgraph.mockup.forms.rrect;rSize=0;fillColor=#eeeeee;strokeColor=#999999;gradientColor=#cccccc;align=left;spacingLeft=4;fontSize=17;fontColor=#666666;labelPosition=right;" parent="yxWZDSmVDI_DWrx5P2sv-4" vertex="1">
          <mxGeometry x="8" y="7.5" width="15" height="15" as="geometry" />
        </mxCell>
        <mxCell id="yxWZDSmVDI_DWrx5P2sv-7" value="Cystatin C" style="strokeWidth=1;shadow=0;dashed=0;align=center;html=1;shape=mxgraph.mockup.forms.checkbox;rSize=0;resizable=0;fillColor=#aaaaaa;strokeColor=#444444;gradientColor=#666666;align=left;spacingLeft=4;fontSize=17;fontColor=#008cff;labelPosition=right;" parent="yxWZDSmVDI_DWrx5P2sv-4" vertex="1">
          <mxGeometry x="8" y="36" width="15" height="15" as="geometry" />
        </mxCell>
        <mxCell id="MbmpIsr86u1NgLFeS8km-38" value="" style="strokeWidth=1;shadow=0;dashed=0;align=center;html=1;shape=mxgraph.mockup.forms.rrect;rSize=0;strokeColor=#999999;fillColor=#ffffff;" parent="1" vertex="1">
          <mxGeometry x="-1590" y="70" width="460" height="270" as="geometry" />
        </mxCell>
        <mxCell id="MbmpIsr86u1NgLFeS8km-40" value="gastrointestinale Beschwerden" style="strokeWidth=1;shadow=0;dashed=0;align=center;html=1;shape=mxgraph.mockup.forms.anchor;fontSize=17;fontColor=#666666;align=left;spacingLeft=5;resizeWidth=1;whiteSpace=wrap;movable=1;resizable=1;rotatable=1;deletable=1;editable=1;locked=0;connectable=1;" parent="MbmpIsr86u1NgLFeS8km-38" vertex="1">
          <mxGeometry width="459.99999999999994" height="20" relative="1" as="geometry">
            <mxPoint y="30" as="offset" />
          </mxGeometry>
        </mxCell>
        <mxCell id="MbmpIsr86u1NgLFeS8km-41" value="respiratorische Beschwerden" style="strokeWidth=1;shadow=0;dashed=0;align=center;html=1;shape=mxgraph.mockup.forms.anchor;fontSize=17;fontColor=#666666;align=left;spacingLeft=5;resizeWidth=1;whiteSpace=wrap;movable=1;resizable=1;rotatable=1;deletable=1;editable=1;locked=0;connectable=1;" parent="MbmpIsr86u1NgLFeS8km-38" vertex="1">
          <mxGeometry width="459.99999999999994" height="20" relative="1" as="geometry">
            <mxPoint y="50" as="offset" />
          </mxGeometry>
        </mxCell>
        <mxCell id="MbmpIsr86u1NgLFeS8km-42" value="kardiovaskuläre Beschwerden" style="strokeWidth=1;shadow=0;dashed=0;align=center;html=1;shape=mxgraph.mockup.forms.rrect;rSize=0;fontSize=17;fontColor=#666666;align=left;spacingLeft=5;fillColor=#ddeeff;strokeColor=none;resizeWidth=1;whiteSpace=wrap;labelBorderColor=none;movable=1;resizable=1;rotatable=1;deletable=1;editable=1;locked=0;connectable=1;" parent="MbmpIsr86u1NgLFeS8km-38" vertex="1">
          <mxGeometry width="459.99999999999994" height="20" relative="1" as="geometry">
            <mxPoint y="70" as="offset" />
          </mxGeometry>
        </mxCell>
        <mxCell id="MbmpIsr86u1NgLFeS8km-43" value="Andere (weitere) Beschwerden" style="strokeWidth=1;shadow=0;dashed=0;align=center;html=1;shape=mxgraph.mockup.forms.anchor;fontSize=17;fontColor=#666666;align=left;spacingLeft=5;resizeWidth=1;whiteSpace=wrap;movable=1;resizable=1;rotatable=1;deletable=1;editable=1;locked=0;connectable=1;" parent="MbmpIsr86u1NgLFeS8km-38" vertex="1">
          <mxGeometry width="459.99999999999994" height="20" relative="1" as="geometry">
            <mxPoint y="90" as="offset" />
          </mxGeometry>
        </mxCell>
        <mxCell id="MbmpIsr86u1NgLFeS8km-44" value="..." style="strokeWidth=1;shadow=0;dashed=0;align=center;html=1;shape=mxgraph.mockup.forms.anchor;fontSize=17;fontColor=#666666;align=left;spacingLeft=5;resizeWidth=1;whiteSpace=wrap;container=0;movable=1;resizable=1;rotatable=1;deletable=1;editable=1;locked=0;connectable=1;" parent="MbmpIsr86u1NgLFeS8km-38" vertex="1">
          <mxGeometry y="125.71285714285716" width="459.99999999999994" height="18.571428571428573" as="geometry">
            <mxRectangle x="-1530" y="270" width="60" height="30" as="alternateBounds" />
          </mxGeometry>
        </mxCell>
        <mxCell id="MbmpIsr86u1NgLFeS8km-83" value="muskuläre Beschwerden" style="strokeWidth=1;shadow=0;dashed=0;align=center;html=1;shape=mxgraph.mockup.forms.anchor;fontSize=17;fontColor=#666666;align=left;spacingLeft=5;resizeWidth=1;whiteSpace=wrap;movable=1;resizable=1;rotatable=1;deletable=1;editable=1;locked=0;connectable=1;" parent="MbmpIsr86u1NgLFeS8km-38" vertex="1">
          <mxGeometry y="9.999999999999545" width="459.99999999999994" height="20" as="geometry" />
        </mxCell>
        <mxCell id="yxWZDSmVDI_DWrx5P2sv-20" value="&lt;font style=&quot;font-size: 16px;&quot;&gt;Mehrfachauswahl möglich&lt;/font&gt;" style="rounded=1;whiteSpace=wrap;html=1;" parent="MbmpIsr86u1NgLFeS8km-38" vertex="1">
          <mxGeometry x="300" y="30" width="150" height="57.69" as="geometry" />
        </mxCell>
        <mxCell id="6gY423SuMZISGxGH3sQo-4" value="Keine Beschwerden" style="strokeWidth=1;shadow=0;dashed=0;align=center;html=1;shape=mxgraph.mockup.forms.anchor;fontSize=17;fontColor=#666666;align=left;spacingLeft=5;resizeWidth=1;whiteSpace=wrap;container=0;movable=1;resizable=1;rotatable=1;deletable=1;editable=1;locked=0;connectable=1;" parent="MbmpIsr86u1NgLFeS8km-38" vertex="1">
          <mxGeometry y="107.14285714285717" width="459.99999999999994" height="18.571428571428573" as="geometry">
            <mxRectangle x="-1530" y="270" width="60" height="30" as="alternateBounds" />
          </mxGeometry>
        </mxCell>
        <mxCell id="MbmpIsr86u1NgLFeS8km-45" value="" style="endArrow=classic;html=1;rounded=0;entryX=0.003;entryY=-0.097;entryDx=0;entryDy=0;entryPerimeter=0;exitX=1;exitY=0.5;exitDx=0;exitDy=0;" parent="1" source="MbmpIsr86u1NgLFeS8km-31" target="MbmpIsr86u1NgLFeS8km-42" edge="1">
          <mxGeometry width="50" height="50" relative="1" as="geometry">
            <mxPoint x="-1770" y="330" as="sourcePoint" />
            <mxPoint x="-1720" y="280" as="targetPoint" />
          </mxGeometry>
        </mxCell>
        <mxCell id="MbmpIsr86u1NgLFeS8km-46" value="" style="strokeWidth=1;shadow=0;dashed=0;align=center;html=1;shape=mxgraph.mockup.forms.rrect;rSize=0;strokeColor=#999999;fillColor=#ffffff;" parent="1" vertex="1">
          <mxGeometry x="-1580" y="770" width="460" height="280" as="geometry" />
        </mxCell>
        <mxCell id="MbmpIsr86u1NgLFeS8km-47" value="Verordnung gestoppt" style="strokeWidth=1;shadow=0;dashed=0;align=center;html=1;shape=mxgraph.mockup.forms.anchor;fontSize=17;fontColor=#666666;align=left;spacingLeft=5;resizeWidth=1;whiteSpace=wrap;" parent="MbmpIsr86u1NgLFeS8km-46" vertex="1">
          <mxGeometry width="450" height="20" relative="1" as="geometry">
            <mxPoint y="30" as="offset" />
          </mxGeometry>
        </mxCell>
        <mxCell id="MbmpIsr86u1NgLFeS8km-48" value="Gaben storniert" style="strokeWidth=1;shadow=0;dashed=0;align=center;html=1;shape=mxgraph.mockup.forms.anchor;fontSize=17;fontColor=#666666;align=left;spacingLeft=5;resizeWidth=1;whiteSpace=wrap;" parent="MbmpIsr86u1NgLFeS8km-46" vertex="1">
          <mxGeometry width="450" height="20" relative="1" as="geometry">
            <mxPoint y="50" as="offset" />
          </mxGeometry>
        </mxCell>
        <mxCell id="MbmpIsr86u1NgLFeS8km-49" value="Laborwert angeordnet" style="strokeWidth=1;shadow=0;dashed=0;align=center;html=1;shape=mxgraph.mockup.forms.rrect;rSize=0;fontSize=17;fontColor=#666666;align=left;spacingLeft=5;fillColor=#ddeeff;strokeColor=none;resizeWidth=1;whiteSpace=wrap;labelBorderColor=none;" parent="MbmpIsr86u1NgLFeS8km-46" vertex="1">
          <mxGeometry width="450" height="20" relative="1" as="geometry">
            <mxPoint y="170" as="offset" />
          </mxGeometry>
        </mxCell>
        <mxCell id="MbmpIsr86u1NgLFeS8km-50" value="Dosisreduktion" style="strokeWidth=1;shadow=0;dashed=0;align=center;html=1;shape=mxgraph.mockup.forms.anchor;fontSize=17;fontColor=#666666;align=left;spacingLeft=5;resizeWidth=1;whiteSpace=wrap;" parent="MbmpIsr86u1NgLFeS8km-46" vertex="1">
          <mxGeometry width="450" height="20" relative="1" as="geometry">
            <mxPoint y="90" as="offset" />
          </mxGeometry>
        </mxCell>
        <mxCell id="MbmpIsr86u1NgLFeS8km-51" value="..." style="strokeWidth=1;shadow=0;dashed=0;align=center;html=1;shape=mxgraph.mockup.forms.anchor;fontSize=17;fontColor=#666666;align=left;spacingLeft=5;resizeWidth=1;whiteSpace=wrap;container=0;" parent="MbmpIsr86u1NgLFeS8km-46" vertex="1">
          <mxGeometry y="226.66" width="450" height="20" as="geometry">
            <mxRectangle x="-1530" y="270" width="60" height="30" as="alternateBounds" />
          </mxGeometry>
        </mxCell>
        <mxCell id="MbmpIsr86u1NgLFeS8km-52" value="Hämodialyse" style="strokeWidth=1;shadow=0;dashed=0;align=center;html=1;shape=mxgraph.mockup.forms.anchor;fontSize=17;fontColor=#666666;align=left;spacingLeft=5;resizeWidth=1;whiteSpace=wrap;" parent="MbmpIsr86u1NgLFeS8km-46" vertex="1">
          <mxGeometry y="110" width="450" height="16.66" as="geometry" />
        </mxCell>
        <mxCell id="MbmpIsr86u1NgLFeS8km-54" value="Keine" style="strokeWidth=1;shadow=0;dashed=0;align=center;html=1;shape=mxgraph.mockup.forms.anchor;fontSize=17;fontColor=#666666;align=left;spacingLeft=5;resizeWidth=1;whiteSpace=wrap;" parent="MbmpIsr86u1NgLFeS8km-46" vertex="1">
          <mxGeometry y="206.66" width="450" height="20" as="geometry" />
        </mxCell>
        <mxCell id="MbmpIsr86u1NgLFeS8km-53" value="Andere nicht genannte Massnahmen" style="strokeWidth=1;shadow=0;dashed=0;align=center;html=1;shape=mxgraph.mockup.forms.anchor;fontSize=17;fontColor=#666666;align=left;spacingLeft=5;resizeWidth=1;whiteSpace=wrap;" parent="MbmpIsr86u1NgLFeS8km-46" vertex="1">
          <mxGeometry y="190" width="450" height="16.66" as="geometry" />
        </mxCell>
        <mxCell id="yxWZDSmVDI_DWrx5P2sv-9" value="Anderes Medikament empfohlen" style="strokeWidth=1;shadow=0;dashed=0;align=center;html=1;shape=mxgraph.mockup.forms.anchor;fontSize=17;fontColor=#666666;align=left;spacingLeft=5;resizeWidth=1;whiteSpace=wrap;" parent="MbmpIsr86u1NgLFeS8km-46" vertex="1">
          <mxGeometry y="130" width="450" height="20" as="geometry" />
        </mxCell>
        <mxCell id="yxWZDSmVDI_DWrx5P2sv-10" value="Anderes Medikament gegeben" style="strokeWidth=1;shadow=0;dashed=0;align=center;html=1;shape=mxgraph.mockup.forms.anchor;fontSize=17;fontColor=#666666;align=left;spacingLeft=5;resizeWidth=1;whiteSpace=wrap;" parent="MbmpIsr86u1NgLFeS8km-46" vertex="1">
          <mxGeometry y="150" width="450" height="20" as="geometry" />
        </mxCell>
        <mxCell id="yxWZDSmVDI_DWrx5P2sv-11" value="Antidot verabreicht" style="strokeWidth=1;shadow=0;dashed=0;align=center;html=1;shape=mxgraph.mockup.forms.anchor;fontSize=17;fontColor=#666666;align=left;spacingLeft=5;resizeWidth=1;whiteSpace=wrap;container=0;" parent="MbmpIsr86u1NgLFeS8km-46" vertex="1">
          <mxGeometry y="70" width="450" height="20" as="geometry">
            <mxRectangle x="-1530" y="270" width="60" height="30" as="alternateBounds" />
          </mxGeometry>
        </mxCell>
        <mxCell id="yxWZDSmVDI_DWrx5P2sv-21" value="&lt;font style=&quot;font-size: 16px;&quot;&gt;Mehrfachauswahl möglich&lt;/font&gt;" style="rounded=1;whiteSpace=wrap;html=1;" parent="MbmpIsr86u1NgLFeS8km-46" vertex="1">
          <mxGeometry x="260" y="30" width="150" height="60" as="geometry" />
        </mxCell>
        <mxCell id="MbmpIsr86u1NgLFeS8km-55" value="" style="endArrow=classic;html=1;rounded=0;entryX=0;entryY=0.002;entryDx=0;entryDy=0;entryPerimeter=0;exitX=1;exitY=0.5;exitDx=0;exitDy=0;" parent="1" source="FmK_zJNC0J271hB84PhB-118" target="MbmpIsr86u1NgLFeS8km-54" edge="1">
          <mxGeometry width="50" height="50" relative="1" as="geometry">
            <mxPoint x="-1910" y="750" as="sourcePoint" />
            <mxPoint x="-1860" y="700" as="targetPoint" />
          </mxGeometry>
        </mxCell>
        <mxCell id="MbmpIsr86u1NgLFeS8km-62" value="" style="strokeWidth=1;shadow=0;dashed=0;align=center;html=1;shape=mxgraph.mockup.forms.rrect;rSize=0;strokeColor=#999999;fillColor=#ffffff;" parent="1" vertex="1">
          <mxGeometry x="-1590" y="-240" width="460" height="280" as="geometry" />
        </mxCell>
        <mxCell id="MbmpIsr86u1NgLFeS8km-64" value="Tägliche statt wöchentliche Verschreibung" style="strokeWidth=1;shadow=0;dashed=0;align=center;html=1;shape=mxgraph.mockup.forms.anchor;fontSize=17;fontColor=#666666;align=left;spacingLeft=5;resizeWidth=1;whiteSpace=wrap;movable=0;resizable=0;rotatable=0;deletable=0;editable=0;locked=1;connectable=0;" parent="MbmpIsr86u1NgLFeS8km-62" vertex="1">
          <mxGeometry width="450" height="20" relative="1" as="geometry">
            <mxPoint y="20" as="offset" />
          </mxGeometry>
        </mxCell>
        <mxCell id="MbmpIsr86u1NgLFeS8km-65" value="Mehrfach tägliche Verschreibung" style="strokeWidth=1;shadow=0;dashed=0;align=center;html=1;shape=mxgraph.mockup.forms.rrect;rSize=0;fontSize=17;fontColor=#666666;align=left;spacingLeft=5;fillColor=#ddeeff;strokeColor=none;resizeWidth=1;whiteSpace=wrap;labelBorderColor=none;movable=0;resizable=0;rotatable=0;deletable=0;editable=0;locked=1;connectable=0;" parent="MbmpIsr86u1NgLFeS8km-62" vertex="1">
          <mxGeometry width="450" height="20" relative="1" as="geometry">
            <mxPoint y="40" as="offset" />
          </mxGeometry>
        </mxCell>
        <mxCell id="MbmpIsr86u1NgLFeS8km-66" value="Überdosierung aufgrund Nierenfunktion" style="strokeWidth=1;shadow=0;dashed=0;align=center;html=1;shape=mxgraph.mockup.forms.anchor;fontSize=17;fontColor=#666666;align=left;spacingLeft=5;resizeWidth=1;whiteSpace=wrap;movable=1;resizable=1;rotatable=1;deletable=1;editable=1;locked=0;connectable=1;" parent="MbmpIsr86u1NgLFeS8km-62" vertex="1">
          <mxGeometry width="450" height="20" relative="1" as="geometry">
            <mxPoint y="100" as="offset" />
          </mxGeometry>
        </mxCell>
        <mxCell id="MbmpIsr86u1NgLFeS8km-68" value="Arzneimittelwechselwirkung" style="strokeWidth=1;shadow=0;dashed=0;align=center;html=1;shape=mxgraph.mockup.forms.anchor;fontSize=17;fontColor=#666666;align=left;spacingLeft=5;resizeWidth=1;whiteSpace=wrap;movable=1;resizable=1;rotatable=1;deletable=1;editable=1;locked=0;connectable=1;" parent="MbmpIsr86u1NgLFeS8km-62" vertex="1">
          <mxGeometry y="180" width="450" height="20" as="geometry" />
        </mxCell>
        <mxCell id="MbmpIsr86u1NgLFeS8km-69" value="Keine Falschverschreibung" style="strokeWidth=1;shadow=0;dashed=0;align=center;html=1;shape=mxgraph.mockup.forms.anchor;fontSize=17;fontColor=#666666;align=left;spacingLeft=5;resizeWidth=1;whiteSpace=wrap;movable=1;resizable=1;rotatable=1;deletable=1;editable=1;locked=0;connectable=1;" parent="MbmpIsr86u1NgLFeS8km-62" vertex="1">
          <mxGeometry y="200" width="450" height="20" as="geometry" />
        </mxCell>
        <mxCell id="MbmpIsr86u1NgLFeS8km-70" value="Kontraindiziert??" style="strokeWidth=1;shadow=0;dashed=0;align=center;html=1;shape=mxgraph.mockup.forms.anchor;fontSize=17;fontColor=#666666;align=left;spacingLeft=5;resizeWidth=1;whiteSpace=wrap;movable=1;resizable=1;rotatable=1;deletable=1;editable=1;locked=0;connectable=1;" parent="MbmpIsr86u1NgLFeS8km-62" vertex="1">
          <mxGeometry y="140" width="450" height="20" as="geometry" />
        </mxCell>
        <mxCell id="DG4VdXtJs0O7hIi2pJMf-4" value="Doppelte Verschreibung" style="strokeWidth=1;shadow=0;dashed=0;align=center;html=1;shape=mxgraph.mockup.forms.rrect;rSize=0;fontSize=17;fontColor=#666666;align=left;spacingLeft=5;fillColor=#ddeeff;strokeColor=none;resizeWidth=1;whiteSpace=wrap;labelBorderColor=none;movable=0;resizable=0;rotatable=0;deletable=0;editable=0;locked=1;connectable=0;" parent="MbmpIsr86u1NgLFeS8km-62" vertex="1">
          <mxGeometry y="60" width="450" height="20" as="geometry" />
        </mxCell>
        <mxCell id="yxWZDSmVDI_DWrx5P2sv-19" value="&lt;font style=&quot;font-size: 16px;&quot;&gt;Mehrfachauswahl möglich&lt;/font&gt;" style="rounded=1;whiteSpace=wrap;html=1;" parent="MbmpIsr86u1NgLFeS8km-62" vertex="1">
          <mxGeometry x="370" y="10" width="150" height="60" as="geometry" />
        </mxCell>
        <mxCell id="6gY423SuMZISGxGH3sQo-1" value="Verschreibung trotz schlechter Nierenfunktion" style="strokeWidth=1;shadow=0;dashed=0;align=center;html=1;shape=mxgraph.mockup.forms.anchor;fontSize=17;fontColor=#666666;align=left;spacingLeft=5;resizeWidth=1;whiteSpace=wrap;movable=1;resizable=1;rotatable=1;deletable=1;editable=1;locked=0;connectable=1;" parent="MbmpIsr86u1NgLFeS8km-62" vertex="1">
          <mxGeometry y="80" width="450" height="20" as="geometry" />
        </mxCell>
        <mxCell id="6gY423SuMZISGxGH3sQo-2" value="Überdosierung aufgrund Fehlverschreibung" style="strokeWidth=1;shadow=0;dashed=0;align=center;html=1;shape=mxgraph.mockup.forms.anchor;fontSize=17;fontColor=#666666;align=left;spacingLeft=5;resizeWidth=1;whiteSpace=wrap;movable=1;resizable=1;rotatable=1;deletable=1;editable=1;locked=0;connectable=1;" parent="MbmpIsr86u1NgLFeS8km-62" vertex="1">
          <mxGeometry y="120" width="450" height="20" as="geometry" />
        </mxCell>
        <mxCell id="6gY423SuMZISGxGH3sQo-3" value="Unterdosierung" style="strokeWidth=1;shadow=0;dashed=0;align=center;html=1;shape=mxgraph.mockup.forms.anchor;fontSize=17;fontColor=#666666;align=left;spacingLeft=5;resizeWidth=1;whiteSpace=wrap;movable=1;resizable=1;rotatable=1;deletable=1;editable=1;locked=0;connectable=1;" parent="MbmpIsr86u1NgLFeS8km-62" vertex="1">
          <mxGeometry y="160" width="450" height="20" as="geometry" />
        </mxCell>
        <mxCell id="MbmpIsr86u1NgLFeS8km-71" value="" style="endArrow=classic;html=1;rounded=0;entryX=-0.008;entryY=0.224;entryDx=0;entryDy=0;entryPerimeter=0;exitX=1;exitY=0.5;exitDx=0;exitDy=0;" parent="1" source="FmK_zJNC0J271hB84PhB-105" target="MbmpIsr86u1NgLFeS8km-62" edge="1">
          <mxGeometry width="50" height="50" relative="1" as="geometry">
            <mxPoint x="-1910" y="10" as="sourcePoint" />
            <mxPoint x="-1860" y="-40" as="targetPoint" />
          </mxGeometry>
        </mxCell>
        <mxCell id="MbmpIsr86u1NgLFeS8km-74" value="&lt;font style=&quot;font-size: 14px;&quot;&gt;Code:&amp;nbsp;&lt;br&gt;Feldtyp:&lt;br&gt;optional?&amp;nbsp;&lt;br&gt;Mehrfachauswahl?&lt;br&gt;Rechtschreibeprüfung?&lt;br&gt;&amp;nbsp;Auto Suchfunktion?&lt;br&gt;Auswahl als Checkbox? &lt;br&gt;Bezüge Laden? mit Überschreiben?&lt;/font&gt;" style="html=1;whiteSpace=wrap;container=1;align=left;fillColor=#e1d5e7;strokeColor=#9673a6;" parent="1" vertex="1">
          <mxGeometry x="-3020" y="-860" width="260" height="170" as="geometry" />
        </mxCell>
        <mxCell id="MbmpIsr86u1NgLFeS8km-86" value="&lt;span style=&quot;font-size: 14px;&quot;&gt;Bezüge Laden:&lt;br&gt;&lt;ul&gt;&lt;li&gt;&lt;span style=&quot;font-size: 14px;&quot;&gt;...&lt;/span&gt;&lt;/li&gt;&lt;/ul&gt;&lt;div&gt;Mit Überschreiben:&lt;/div&gt;&lt;div&gt;&lt;ul&gt;&lt;li&gt;&lt;br&gt;&lt;/li&gt;&lt;/ul&gt;&lt;/div&gt;&lt;/span&gt;" style="html=1;whiteSpace=wrap;container=1;align=left;fillColor=#E1D5E7;" parent="1" vertex="1">
          <mxGeometry x="-3020" y="-1360" width="310" height="170" as="geometry" />
        </mxCell>
        <mxCell id="MbmpIsr86u1NgLFeS8km-87" value="Berechtigungen:&lt;br&gt;&lt;ul&gt;&lt;li&gt;anzeigen&lt;/li&gt;&lt;li&gt;erstellen&lt;/li&gt;&lt;li&gt;löschen&lt;/li&gt;&lt;li&gt;ändern&lt;/li&gt;&lt;li&gt;freigeben&lt;/li&gt;&lt;li&gt;wiederöffnen&lt;/li&gt;&lt;li&gt;&lt;br&gt;&lt;/li&gt;&lt;/ul&gt;" style="html=1;whiteSpace=wrap;container=1;align=left;fillColor=#E1D5E7;" parent="1" vertex="1">
          <mxGeometry x="-3020" y="-1169" width="310" height="290" as="geometry" />
        </mxCell>
        <mxCell id="gpSDU0lfajovMPE759uH-4" value="" style="endArrow=classic;html=1;rounded=0;entryX=-0.009;entryY=0.636;entryDx=0;entryDy=0;entryPerimeter=0;" parent="1" source="bGcx2p2PE-QoZrHpDItu-37" target="bGcx2p2PE-QoZrHpDItu-31" edge="1">
          <mxGeometry width="50" height="50" relative="1" as="geometry">
            <mxPoint x="-1380" y="-850" as="sourcePoint" />
            <mxPoint x="-1330" y="-900" as="targetPoint" />
          </mxGeometry>
        </mxCell>
        <mxCell id="gpSDU0lfajovMPE759uH-5" value="" style="strokeWidth=1;shadow=0;dashed=0;align=center;html=1;shape=mxgraph.mockup.forms.rrect;rSize=0;strokeColor=#999999;fillColor=#ffffff;" parent="1" vertex="1">
          <mxGeometry x="-1560" y="-1240" width="450" height="140" as="geometry" />
        </mxCell>
        <mxCell id="gpSDU0lfajovMPE759uH-6" value="Gemigliptin" style="strokeWidth=1;shadow=0;dashed=0;align=center;html=1;shape=mxgraph.mockup.forms.anchor;fontSize=17;fontColor=#666666;align=left;spacingLeft=5;resizeWidth=1;whiteSpace=wrap;" parent="gpSDU0lfajovMPE759uH-5" vertex="1">
          <mxGeometry width="450.00000000000006" height="20" relative="1" as="geometry">
            <mxPoint y="30" as="offset" />
          </mxGeometry>
        </mxCell>
        <mxCell id="gpSDU0lfajovMPE759uH-7" value="Acetylsalicyclic acid" style="strokeWidth=1;shadow=0;dashed=0;align=center;html=1;shape=mxgraph.mockup.forms.anchor;fontSize=17;fontColor=#666666;align=left;spacingLeft=5;resizeWidth=1;whiteSpace=wrap;" parent="gpSDU0lfajovMPE759uH-5" vertex="1">
          <mxGeometry width="450.00000000000006" height="20" relative="1" as="geometry">
            <mxPoint y="50" as="offset" />
          </mxGeometry>
        </mxCell>
        <mxCell id="gpSDU0lfajovMPE759uH-8" value="..." style="strokeWidth=1;shadow=0;dashed=0;align=center;html=1;shape=mxgraph.mockup.forms.rrect;rSize=0;fontSize=17;fontColor=#666666;align=left;spacingLeft=5;fillColor=#ddeeff;strokeColor=none;resizeWidth=1;whiteSpace=wrap;" parent="gpSDU0lfajovMPE759uH-5" vertex="1">
          <mxGeometry width="450.00000000000006" height="20" relative="1" as="geometry">
            <mxPoint y="70" as="offset" />
          </mxGeometry>
        </mxCell>
        <mxCell id="gpSDU0lfajovMPE759uH-9" value="..." style="strokeWidth=1;shadow=0;dashed=0;align=center;html=1;shape=mxgraph.mockup.forms.anchor;fontSize=17;fontColor=#666666;align=left;spacingLeft=5;resizeWidth=1;whiteSpace=wrap;" parent="gpSDU0lfajovMPE759uH-5" vertex="1">
          <mxGeometry width="450.00000000000006" height="20" relative="1" as="geometry">
            <mxPoint y="90" as="offset" />
          </mxGeometry>
        </mxCell>
        <mxCell id="DG4VdXtJs0O7hIi2pJMf-7" value="&lt;font style=&quot;font-size: 16px;&quot;&gt;Keine Mehrfachauswahl?&lt;/font&gt;" style="rounded=1;whiteSpace=wrap;html=1;fillColor=#d5e8d4;strokeColor=#82b366;" parent="gpSDU0lfajovMPE759uH-5" vertex="1">
          <mxGeometry x="270" y="40" width="150" height="60" as="geometry" />
        </mxCell>
        <mxCell id="gpSDU0lfajovMPE759uH-10" value="" style="endArrow=classic;html=1;rounded=0;entryX=0.005;entryY=0.133;entryDx=0;entryDy=0;entryPerimeter=0;exitX=1;exitY=0.349;exitDx=0;exitDy=0;exitPerimeter=0;" parent="1" source="gpSDU0lfajovMPE759uH-2" target="gpSDU0lfajovMPE759uH-8" edge="1">
          <mxGeometry width="50" height="50" relative="1" as="geometry">
            <mxPoint x="-1590" y="-890" as="sourcePoint" />
            <mxPoint x="-1540" y="-940" as="targetPoint" />
          </mxGeometry>
        </mxCell>
        <mxCell id="gpSDU0lfajovMPE759uH-19" value="" style="strokeWidth=1;shadow=0;dashed=0;align=center;html=1;shape=mxgraph.mockup.forms.rrect;rSize=0;strokeColor=#999999;fillColor=#ffffff;" parent="1" vertex="1">
          <mxGeometry x="-1560" y="-1080" width="520" height="180" as="geometry" />
        </mxCell>
        <mxCell id="gpSDU0lfajovMPE759uH-20" value="Täglich" style="strokeWidth=1;shadow=0;dashed=0;align=center;html=1;shape=mxgraph.mockup.forms.anchor;fontSize=17;fontColor=#666666;align=left;spacingLeft=5;resizeWidth=1;whiteSpace=wrap;" parent="gpSDU0lfajovMPE759uH-19" vertex="1">
          <mxGeometry width="520" height="20" relative="1" as="geometry">
            <mxPoint y="30" as="offset" />
          </mxGeometry>
        </mxCell>
        <mxCell id="gpSDU0lfajovMPE759uH-21" value="Wöchentlich" style="strokeWidth=1;shadow=0;dashed=0;align=center;html=1;shape=mxgraph.mockup.forms.anchor;fontSize=17;fontColor=#666666;align=left;spacingLeft=5;resizeWidth=1;whiteSpace=wrap;" parent="gpSDU0lfajovMPE759uH-19" vertex="1">
          <mxGeometry width="520" height="20" relative="1" as="geometry">
            <mxPoint y="50" as="offset" />
          </mxGeometry>
        </mxCell>
        <mxCell id="gpSDU0lfajovMPE759uH-22" value="Jeden Montag" style="strokeWidth=1;shadow=0;dashed=0;align=center;html=1;shape=mxgraph.mockup.forms.rrect;rSize=0;fontSize=17;fontColor=#666666;align=left;spacingLeft=5;fillColor=#ddeeff;strokeColor=none;resizeWidth=1;whiteSpace=wrap;" parent="gpSDU0lfajovMPE759uH-19" vertex="1">
          <mxGeometry width="520" height="20" relative="1" as="geometry">
            <mxPoint y="70" as="offset" />
          </mxGeometry>
        </mxCell>
        <mxCell id="gpSDU0lfajovMPE759uH-23" value="Jeden Dienstag" style="strokeWidth=1;shadow=0;dashed=0;align=center;html=1;shape=mxgraph.mockup.forms.anchor;fontSize=17;fontColor=#666666;align=left;spacingLeft=5;resizeWidth=1;whiteSpace=wrap;" parent="gpSDU0lfajovMPE759uH-19" vertex="1">
          <mxGeometry width="520" height="20" relative="1" as="geometry">
            <mxPoint y="90" as="offset" />
          </mxGeometry>
        </mxCell>
        <mxCell id="gpSDU0lfajovMPE759uH-24" value="..." style="strokeWidth=1;shadow=0;dashed=0;align=center;html=1;shape=mxgraph.mockup.forms.anchor;fontSize=17;fontColor=#666666;align=left;spacingLeft=5;resizeWidth=1;whiteSpace=wrap;" parent="gpSDU0lfajovMPE759uH-19" vertex="1">
          <mxGeometry y="115" width="520" height="20" as="geometry" />
        </mxCell>
        <mxCell id="gpSDU0lfajovMPE759uH-25" value="Jeden Sonntag" style="strokeWidth=1;shadow=0;dashed=0;align=center;html=1;shape=mxgraph.mockup.forms.anchor;fontSize=17;fontColor=#666666;align=left;spacingLeft=5;resizeWidth=1;whiteSpace=wrap;" parent="gpSDU0lfajovMPE759uH-19" vertex="1">
          <mxGeometry y="135" width="520" height="20" as="geometry" />
        </mxCell>
        <mxCell id="gpSDU0lfajovMPE759uH-26" value="&lt;font style=&quot;font-size: 16px;&quot;&gt;Mehrfachauswahl möglich&lt;/font&gt;" style="rounded=1;whiteSpace=wrap;html=1;" parent="gpSDU0lfajovMPE759uH-19" vertex="1">
          <mxGeometry x="310" y="55" width="150" height="60" as="geometry" />
        </mxCell>
        <mxCell id="gpSDU0lfajovMPE759uH-37" value="" style="strokeWidth=1;shadow=0;dashed=0;align=center;html=1;shape=mxgraph.mockup.forms.rrect;rSize=0;strokeColor=#999999;fillColor=#ffffff;" parent="1" vertex="1">
          <mxGeometry x="-1560" y="-890" width="450" height="140" as="geometry" />
        </mxCell>
        <mxCell id="gpSDU0lfajovMPE759uH-38" value="Morgens" style="strokeWidth=1;shadow=0;dashed=0;align=center;html=1;shape=mxgraph.mockup.forms.anchor;fontSize=17;fontColor=#666666;align=left;spacingLeft=5;resizeWidth=1;whiteSpace=wrap;" parent="gpSDU0lfajovMPE759uH-37" vertex="1">
          <mxGeometry width="450.00000000000006" height="20" relative="1" as="geometry">
            <mxPoint y="30" as="offset" />
          </mxGeometry>
        </mxCell>
        <mxCell id="gpSDU0lfajovMPE759uH-39" value="Mittags" style="strokeWidth=1;shadow=0;dashed=0;align=center;html=1;shape=mxgraph.mockup.forms.anchor;fontSize=17;fontColor=#666666;align=left;spacingLeft=5;resizeWidth=1;whiteSpace=wrap;" parent="gpSDU0lfajovMPE759uH-37" vertex="1">
          <mxGeometry width="450.00000000000006" height="20" relative="1" as="geometry">
            <mxPoint y="50" as="offset" />
          </mxGeometry>
        </mxCell>
        <mxCell id="gpSDU0lfajovMPE759uH-40" value="Abends" style="strokeWidth=1;shadow=0;dashed=0;align=center;html=1;shape=mxgraph.mockup.forms.rrect;rSize=0;fontSize=17;fontColor=#666666;align=left;spacingLeft=5;fillColor=#ddeeff;strokeColor=none;resizeWidth=1;whiteSpace=wrap;" parent="gpSDU0lfajovMPE759uH-37" vertex="1">
          <mxGeometry width="450.00000000000006" height="20" relative="1" as="geometry">
            <mxPoint y="70" as="offset" />
          </mxGeometry>
        </mxCell>
        <mxCell id="gpSDU0lfajovMPE759uH-41" value="Nachts" style="strokeWidth=1;shadow=0;dashed=0;align=center;html=1;shape=mxgraph.mockup.forms.anchor;fontSize=17;fontColor=#666666;align=left;spacingLeft=5;resizeWidth=1;whiteSpace=wrap;" parent="gpSDU0lfajovMPE759uH-37" vertex="1">
          <mxGeometry width="450.00000000000006" height="20" relative="1" as="geometry">
            <mxPoint y="90" as="offset" />
          </mxGeometry>
        </mxCell>
        <mxCell id="gpSDU0lfajovMPE759uH-49" value="&lt;font style=&quot;font-size: 16px;&quot;&gt;Mehrfachauswahl möglich&lt;/font&gt;" style="rounded=1;whiteSpace=wrap;html=1;" parent="gpSDU0lfajovMPE759uH-37" vertex="1">
          <mxGeometry x="250" y="40" width="150" height="60" as="geometry" />
        </mxCell>
        <mxCell id="gpSDU0lfajovMPE759uH-79" value="" style="endArrow=classic;html=1;rounded=0;entryX=0.003;entryY=-0.088;entryDx=0;entryDy=0;entryPerimeter=0;exitX=0.999;exitY=0.677;exitDx=0;exitDy=0;exitPerimeter=0;" parent="1" source="gpSDU0lfajovMPE759uH-18" target="gpSDU0lfajovMPE759uH-23" edge="1">
          <mxGeometry width="50" height="50" relative="1" as="geometry">
            <mxPoint x="-1650" y="-930" as="sourcePoint" />
            <mxPoint x="-1600" y="-980" as="targetPoint" />
          </mxGeometry>
        </mxCell>
        <mxCell id="gpSDU0lfajovMPE759uH-80" value="" style="endArrow=classic;html=1;rounded=0;entryX=0.001;entryY=-0.275;entryDx=0;entryDy=0;entryPerimeter=0;exitX=1.007;exitY=0.811;exitDx=0;exitDy=0;exitPerimeter=0;" parent="1" source="gpSDU0lfajovMPE759uH-28" target="gpSDU0lfajovMPE759uH-40" edge="1">
          <mxGeometry width="50" height="50" relative="1" as="geometry">
            <mxPoint x="-1677" y="-1032" as="sourcePoint" />
            <mxPoint x="-1548" y="-982" as="targetPoint" />
          </mxGeometry>
        </mxCell>
        <mxCell id="gpSDU0lfajovMPE759uH-81" value="" style="endArrow=classic;html=1;rounded=0;entryX=-0.002;entryY=0.532;entryDx=0;entryDy=0;entryPerimeter=0;exitX=1.002;exitY=0.713;exitDx=0;exitDy=0;exitPerimeter=0;" parent="1" source="gpSDU0lfajovMPE759uH-70" target="gpSDU0lfajovMPE759uH-19" edge="1">
          <mxGeometry width="50" height="50" relative="1" as="geometry">
            <mxPoint x="-1667" y="-1022" as="sourcePoint" />
            <mxPoint x="-1538" y="-972" as="targetPoint" />
          </mxGeometry>
        </mxCell>
        <mxCell id="gpSDU0lfajovMPE759uH-82" value="" style="endArrow=classic;html=1;rounded=0;entryX=-0.011;entryY=0.487;entryDx=0;entryDy=0;entryPerimeter=0;exitX=1.008;exitY=0.641;exitDx=0;exitDy=0;exitPerimeter=0;" parent="1" source="gpSDU0lfajovMPE759uH-72" target="gpSDU0lfajovMPE759uH-37" edge="1">
          <mxGeometry width="50" height="50" relative="1" as="geometry">
            <mxPoint x="-1657" y="-1012" as="sourcePoint" />
            <mxPoint x="-1528" y="-962" as="targetPoint" />
          </mxGeometry>
        </mxCell>
        <mxCell id="gpSDU0lfajovMPE759uH-84" value="&lt;font style=&quot;font-size: 19px;&quot;&gt;rot = Pflichtfelder&lt;/font&gt;" style="rounded=0;whiteSpace=wrap;html=1;fillColor=#ffcccc;strokeColor=#36393d;" parent="1" vertex="1">
          <mxGeometry x="-2450.59" y="-1520" width="320.59" height="50" as="geometry" />
        </mxCell>
        <mxCell id="FmK_zJNC0J271hB84PhB-125" value="&lt;span style=&quot;font-size: 14px;&quot;&gt;Definitionen überarebeiten&lt;/span&gt;" style="rounded=1;whiteSpace=wrap;html=1;fillColor=#D5E8D4;" parent="1" vertex="1">
          <mxGeometry x="-1100" y="-580" width="235" height="40" as="geometry" />
        </mxCell>
        <mxCell id="DG4VdXtJs0O7hIi2pJMf-21" value="&lt;font style=&quot;font-size: 19px;&quot;&gt;gelb = selbstausfüllende Felder&lt;/font&gt;" style="rounded=0;whiteSpace=wrap;html=1;fillColor=#fff2cc;strokeColor=#d6b656;" parent="1" vertex="1">
          <mxGeometry x="-2450.59" y="-1460" width="320.59" height="50" as="geometry" />
        </mxCell>
        <mxCell id="DG4VdXtJs0O7hIi2pJMf-47" value="" style="shape=tableRow;horizontal=0;startSize=0;swimlaneHead=0;swimlaneBody=0;top=0;left=0;bottom=0;right=0;collapsible=0;dropTarget=0;fillColor=none;points=[[0,0.5],[1,0.5]];portConstraint=eastwest;strokeColor=inherit;fontSize=16;" parent="1" vertex="1">
          <mxGeometry x="-1460" y="400" width="340" height="40" as="geometry" />
        </mxCell>
        <mxCell id="DG4VdXtJs0O7hIi2pJMf-50" value="" style="shape=table;startSize=0;container=1;collapsible=0;childLayout=tableLayout;fontSize=16;" parent="1" vertex="1">
          <mxGeometry x="-1580" y="360" width="390" height="185" as="geometry" />
        </mxCell>
        <mxCell id="DG4VdXtJs0O7hIi2pJMf-51" value="" style="shape=tableRow;horizontal=0;startSize=0;swimlaneHead=0;swimlaneBody=0;strokeColor=inherit;top=0;left=0;bottom=0;right=0;collapsible=0;dropTarget=0;fillColor=none;points=[[0,0.5],[1,0.5]];portConstraint=eastwest;fontSize=16;" parent="DG4VdXtJs0O7hIi2pJMf-50" vertex="1">
          <mxGeometry width="390" height="31" as="geometry" />
        </mxCell>
        <mxCell id="DG4VdXtJs0O7hIi2pJMf-52" value="&amp;gt;= 90" style="shape=partialRectangle;html=1;whiteSpace=wrap;connectable=0;strokeColor=inherit;overflow=hidden;fillColor=none;top=0;left=0;bottom=0;right=0;pointerEvents=1;fontSize=16;" parent="DG4VdXtJs0O7hIi2pJMf-51" vertex="1">
          <mxGeometry width="73" height="31" as="geometry">
            <mxRectangle width="73" height="31" as="alternateBounds" />
          </mxGeometry>
        </mxCell>
        <mxCell id="DG4VdXtJs0O7hIi2pJMf-53" value="G1" style="shape=partialRectangle;html=1;whiteSpace=wrap;connectable=0;strokeColor=inherit;overflow=hidden;fillColor=none;top=0;left=0;bottom=0;right=0;pointerEvents=1;fontSize=16;" parent="DG4VdXtJs0O7hIi2pJMf-51" vertex="1">
          <mxGeometry x="73" width="73" height="31" as="geometry">
            <mxRectangle width="73" height="31" as="alternateBounds" />
          </mxGeometry>
        </mxCell>
        <mxCell id="DG4VdXtJs0O7hIi2pJMf-54" value="normal oder hoch" style="shape=partialRectangle;html=1;whiteSpace=wrap;connectable=0;strokeColor=inherit;overflow=hidden;fillColor=none;top=0;left=0;bottom=0;right=0;pointerEvents=1;fontSize=16;" parent="DG4VdXtJs0O7hIi2pJMf-51" vertex="1">
          <mxGeometry x="146" width="244" height="31" as="geometry">
            <mxRectangle width="244" height="31" as="alternateBounds" />
          </mxGeometry>
        </mxCell>
        <mxCell id="DG4VdXtJs0O7hIi2pJMf-55" value="" style="shape=tableRow;horizontal=0;startSize=0;swimlaneHead=0;swimlaneBody=0;strokeColor=inherit;top=0;left=0;bottom=0;right=0;collapsible=0;dropTarget=0;fillColor=none;points=[[0,0.5],[1,0.5]];portConstraint=eastwest;fontSize=16;" parent="DG4VdXtJs0O7hIi2pJMf-50" vertex="1">
          <mxGeometry y="31" width="390" height="31" as="geometry" />
        </mxCell>
        <mxCell id="DG4VdXtJs0O7hIi2pJMf-56" value="60-89" style="shape=partialRectangle;html=1;whiteSpace=wrap;connectable=0;strokeColor=inherit;overflow=hidden;fillColor=none;top=0;left=0;bottom=0;right=0;pointerEvents=1;fontSize=16;" parent="DG4VdXtJs0O7hIi2pJMf-55" vertex="1">
          <mxGeometry width="73" height="31" as="geometry">
            <mxRectangle width="73" height="31" as="alternateBounds" />
          </mxGeometry>
        </mxCell>
        <mxCell id="DG4VdXtJs0O7hIi2pJMf-57" value="G2" style="shape=partialRectangle;html=1;whiteSpace=wrap;connectable=0;strokeColor=inherit;overflow=hidden;fillColor=none;top=0;left=0;bottom=0;right=0;pointerEvents=1;fontSize=16;" parent="DG4VdXtJs0O7hIi2pJMf-55" vertex="1">
          <mxGeometry x="73" width="73" height="31" as="geometry">
            <mxRectangle width="73" height="31" as="alternateBounds" />
          </mxGeometry>
        </mxCell>
        <mxCell id="DG4VdXtJs0O7hIi2pJMf-58" value="leichter Abfall" style="shape=partialRectangle;html=1;whiteSpace=wrap;connectable=0;strokeColor=inherit;overflow=hidden;fillColor=none;top=0;left=0;bottom=0;right=0;pointerEvents=1;fontSize=16;" parent="DG4VdXtJs0O7hIi2pJMf-55" vertex="1">
          <mxGeometry x="146" width="244" height="31" as="geometry">
            <mxRectangle width="244" height="31" as="alternateBounds" />
          </mxGeometry>
        </mxCell>
        <mxCell id="DG4VdXtJs0O7hIi2pJMf-59" value="" style="shape=tableRow;horizontal=0;startSize=0;swimlaneHead=0;swimlaneBody=0;strokeColor=inherit;top=0;left=0;bottom=0;right=0;collapsible=0;dropTarget=0;fillColor=none;points=[[0,0.5],[1,0.5]];portConstraint=eastwest;fontSize=16;" parent="DG4VdXtJs0O7hIi2pJMf-50" vertex="1">
          <mxGeometry y="62" width="390" height="31" as="geometry" />
        </mxCell>
        <mxCell id="DG4VdXtJs0O7hIi2pJMf-60" value="45-59" style="shape=partialRectangle;html=1;whiteSpace=wrap;connectable=0;strokeColor=inherit;overflow=hidden;fillColor=none;top=0;left=0;bottom=0;right=0;pointerEvents=1;fontSize=16;" parent="DG4VdXtJs0O7hIi2pJMf-59" vertex="1">
          <mxGeometry width="73" height="31" as="geometry">
            <mxRectangle width="73" height="31" as="alternateBounds" />
          </mxGeometry>
        </mxCell>
        <mxCell id="DG4VdXtJs0O7hIi2pJMf-61" value="G3a" style="shape=partialRectangle;html=1;whiteSpace=wrap;connectable=0;strokeColor=inherit;overflow=hidden;fillColor=none;top=0;left=0;bottom=0;right=0;pointerEvents=1;fontSize=16;" parent="DG4VdXtJs0O7hIi2pJMf-59" vertex="1">
          <mxGeometry x="73" width="73" height="31" as="geometry">
            <mxRectangle width="73" height="31" as="alternateBounds" />
          </mxGeometry>
        </mxCell>
        <mxCell id="DG4VdXtJs0O7hIi2pJMf-62" value="leichter bis moderater Abfall" style="shape=partialRectangle;html=1;whiteSpace=wrap;connectable=0;strokeColor=inherit;overflow=hidden;fillColor=none;top=0;left=0;bottom=0;right=0;pointerEvents=1;fontSize=16;" parent="DG4VdXtJs0O7hIi2pJMf-59" vertex="1">
          <mxGeometry x="146" width="244" height="31" as="geometry">
            <mxRectangle width="244" height="31" as="alternateBounds" />
          </mxGeometry>
        </mxCell>
        <mxCell id="DG4VdXtJs0O7hIi2pJMf-63" style="shape=tableRow;horizontal=0;startSize=0;swimlaneHead=0;swimlaneBody=0;strokeColor=inherit;top=0;left=0;bottom=0;right=0;collapsible=0;dropTarget=0;fillColor=none;points=[[0,0.5],[1,0.5]];portConstraint=eastwest;fontSize=16;" parent="DG4VdXtJs0O7hIi2pJMf-50" vertex="1">
          <mxGeometry y="93" width="390" height="30" as="geometry" />
        </mxCell>
        <mxCell id="DG4VdXtJs0O7hIi2pJMf-64" value="30-44" style="shape=partialRectangle;html=1;whiteSpace=wrap;connectable=0;strokeColor=inherit;overflow=hidden;fillColor=none;top=0;left=0;bottom=0;right=0;pointerEvents=1;fontSize=16;" parent="DG4VdXtJs0O7hIi2pJMf-63" vertex="1">
          <mxGeometry width="73" height="30" as="geometry">
            <mxRectangle width="73" height="30" as="alternateBounds" />
          </mxGeometry>
        </mxCell>
        <mxCell id="DG4VdXtJs0O7hIi2pJMf-65" value="G3b" style="shape=partialRectangle;html=1;whiteSpace=wrap;connectable=0;strokeColor=inherit;overflow=hidden;fillColor=none;top=0;left=0;bottom=0;right=0;pointerEvents=1;fontSize=16;" parent="DG4VdXtJs0O7hIi2pJMf-63" vertex="1">
          <mxGeometry x="73" width="73" height="30" as="geometry">
            <mxRectangle width="73" height="30" as="alternateBounds" />
          </mxGeometry>
        </mxCell>
        <mxCell id="DG4VdXtJs0O7hIi2pJMf-66" value="moderater bis starker Abfall" style="shape=partialRectangle;html=1;whiteSpace=wrap;connectable=0;strokeColor=inherit;overflow=hidden;fillColor=none;top=0;left=0;bottom=0;right=0;pointerEvents=1;fontSize=16;" parent="DG4VdXtJs0O7hIi2pJMf-63" vertex="1">
          <mxGeometry x="146" width="244" height="30" as="geometry">
            <mxRectangle width="244" height="30" as="alternateBounds" />
          </mxGeometry>
        </mxCell>
        <mxCell id="DG4VdXtJs0O7hIi2pJMf-67" style="shape=tableRow;horizontal=0;startSize=0;swimlaneHead=0;swimlaneBody=0;strokeColor=inherit;top=0;left=0;bottom=0;right=0;collapsible=0;dropTarget=0;fillColor=none;points=[[0,0.5],[1,0.5]];portConstraint=eastwest;fontSize=16;" parent="DG4VdXtJs0O7hIi2pJMf-50" vertex="1">
          <mxGeometry y="123" width="390" height="31" as="geometry" />
        </mxCell>
        <mxCell id="DG4VdXtJs0O7hIi2pJMf-68" value="15-29" style="shape=partialRectangle;html=1;whiteSpace=wrap;connectable=0;strokeColor=inherit;overflow=hidden;fillColor=none;top=0;left=0;bottom=0;right=0;pointerEvents=1;fontSize=16;" parent="DG4VdXtJs0O7hIi2pJMf-67" vertex="1">
          <mxGeometry width="73" height="31" as="geometry">
            <mxRectangle width="73" height="31" as="alternateBounds" />
          </mxGeometry>
        </mxCell>
        <mxCell id="DG4VdXtJs0O7hIi2pJMf-69" value="G4" style="shape=partialRectangle;html=1;whiteSpace=wrap;connectable=0;strokeColor=inherit;overflow=hidden;fillColor=none;top=0;left=0;bottom=0;right=0;pointerEvents=1;fontSize=16;" parent="DG4VdXtJs0O7hIi2pJMf-67" vertex="1">
          <mxGeometry x="73" width="73" height="31" as="geometry">
            <mxRectangle width="73" height="31" as="alternateBounds" />
          </mxGeometry>
        </mxCell>
        <mxCell id="DG4VdXtJs0O7hIi2pJMf-70" value="starker Abfall" style="shape=partialRectangle;html=1;whiteSpace=wrap;connectable=0;strokeColor=inherit;overflow=hidden;fillColor=none;top=0;left=0;bottom=0;right=0;pointerEvents=1;fontSize=16;" parent="DG4VdXtJs0O7hIi2pJMf-67" vertex="1">
          <mxGeometry x="146" width="244" height="31" as="geometry">
            <mxRectangle width="244" height="31" as="alternateBounds" />
          </mxGeometry>
        </mxCell>
        <mxCell id="DG4VdXtJs0O7hIi2pJMf-71" style="shape=tableRow;horizontal=0;startSize=0;swimlaneHead=0;swimlaneBody=0;strokeColor=inherit;top=0;left=0;bottom=0;right=0;collapsible=0;dropTarget=0;fillColor=none;points=[[0,0.5],[1,0.5]];portConstraint=eastwest;fontSize=16;" parent="DG4VdXtJs0O7hIi2pJMf-50" vertex="1">
          <mxGeometry y="154" width="390" height="31" as="geometry" />
        </mxCell>
        <mxCell id="DG4VdXtJs0O7hIi2pJMf-72" value="&amp;lt;15" style="shape=partialRectangle;html=1;whiteSpace=wrap;connectable=0;strokeColor=inherit;overflow=hidden;fillColor=none;top=0;left=0;bottom=0;right=0;pointerEvents=1;fontSize=16;" parent="DG4VdXtJs0O7hIi2pJMf-71" vertex="1">
          <mxGeometry width="73" height="31" as="geometry">
            <mxRectangle width="73" height="31" as="alternateBounds" />
          </mxGeometry>
        </mxCell>
        <mxCell id="DG4VdXtJs0O7hIi2pJMf-73" value="G5" style="shape=partialRectangle;html=1;whiteSpace=wrap;connectable=0;strokeColor=inherit;overflow=hidden;fillColor=none;top=0;left=0;bottom=0;right=0;pointerEvents=1;fontSize=16;" parent="DG4VdXtJs0O7hIi2pJMf-71" vertex="1">
          <mxGeometry x="73" width="73" height="31" as="geometry">
            <mxRectangle width="73" height="31" as="alternateBounds" />
          </mxGeometry>
        </mxCell>
        <mxCell id="DG4VdXtJs0O7hIi2pJMf-74" value="Nierenversagen" style="shape=partialRectangle;html=1;whiteSpace=wrap;connectable=0;strokeColor=inherit;overflow=hidden;fillColor=none;top=0;left=0;bottom=0;right=0;pointerEvents=1;fontSize=16;" parent="DG4VdXtJs0O7hIi2pJMf-71" vertex="1">
          <mxGeometry x="146" width="244" height="31" as="geometry">
            <mxRectangle width="244" height="31" as="alternateBounds" />
          </mxGeometry>
        </mxCell>
        <mxCell id="yxWZDSmVDI_DWrx5P2sv-1" value="" style="endArrow=classic;html=1;rounded=0;entryX=0.003;entryY=0.742;entryDx=0;entryDy=0;entryPerimeter=0;exitX=1;exitY=0.5;exitDx=0;exitDy=0;" parent="1" source="DG4VdXtJs0O7hIi2pJMf-23" target="DG4VdXtJs0O7hIi2pJMf-59" edge="1">
          <mxGeometry width="50" height="50" relative="1" as="geometry">
            <mxPoint x="-1673" y="315" as="sourcePoint" />
            <mxPoint x="-1590" y="290" as="targetPoint" />
          </mxGeometry>
        </mxCell>
      </root>
    </mxGraphModel>
  </diagram>
</mxfile>
